<?xml version="1.0" standalone="no"?>
<!DOCTYPE svg PUBLIC "-//W3C//DTD SVG 20010904//EN"
 "http://www.w3.org/TR/2001/REC-SVG-20010904/DTD/svg10.dtd">
<svg version="1.0" xmlns="http://www.w3.org/2000/svg"
 width="953.000000pt" height="217.000000pt" viewBox="0 0 953.000000 217.000000"
 preserveAspectRatio="xMidYMid meet">

<g transform="translate(0.000000,217.000000) scale(0.100000,-0.100000)"
fill="#000000" stroke="none">
<path d="M1063 2053 c-7 -2 -13 -9 -13 -14 0 -6 9 -5 21 1 31 17 69 4 69 -23
0 -18 -2 -19 -10 -7 -7 11 -9 6 -7 -17 2 -30 5 -33 32 -32 26 1 27 2 8 7 -19
6 -20 9 -8 25 10 14 14 15 19 5 3 -7 4 1 3 17 -1 23 -8 32 -27 36 -31 8 -71 9
-87 2z"/>
<path d="M3150 2026 c-33 -21 -100 -48 -165 -67 -115 -33 -173 -57 -193 -82
-10 -12 -6 -15 28 -21 37 -6 40 -8 40 -39 0 -44 -25 -138 -50 -186 -20 -41
-58 -61 -111 -61 -36 0 -40 -31 -8 -54 28 -19 23 -42 -46 -181 -46 -94 -56
-123 -66 -200 -6 -49 -22 -124 -35 -165 -27 -84 -29 -108 -13 -143 l11 -24 29
29 c22 22 29 39 29 67 0 50 25 196 50 291 11 41 44 121 72 178 42 80 57 102
74 102 20 0 20 -3 11 -62 -7 -51 -6 -68 8 -97 15 -32 15 -36 1 -47 -9 -6 -16
-22 -16 -35 0 -22 1 -22 33 9 21 20 40 30 49 27 21 -8 31 -77 16 -110 -10 -23
-17 -26 -45 -23 -18 2 -33 2 -33 1 0 -4 41 -86 46 -91 9 -11 75 23 89 45 20
30 16 98 -11 176 -15 46 -15 49 2 69 24 25 92 61 104 53 13 -8 37 -92 45 -153
6 -52 5 -53 -53 -130 -73 -94 -85 -105 -191 -172 -61 -39 -87 -62 -97 -86 -34
-81 -1 -106 105 -79 47 12 85 14 145 9 70 -5 95 -3 181 21 130 35 135 38 135
80 0 28 -6 37 -29 50 -19 9 -35 29 -45 57 -20 55 -46 128 -53 150 -3 9 9 41
26 71 24 42 31 66 31 107 0 33 6 60 15 70 21 24 8 55 -32 74 -33 16 -54 16
-129 1 -19 -4 -22 2 -33 63 -11 65 -10 68 13 89 14 11 43 24 65 28 47 8 55 31
21 65 -27 27 -90 28 -90 2 0 -21 -26 -60 -34 -51 -3 3 -8 30 -12 61 -6 48 -4
57 16 75 25 24 166 77 184 70 7 -3 27 -24 45 -46 l33 -41 -30 6 c-17 4 -41 0
-56 -8 l-26 -14 40 -42 c32 -33 48 -42 75 -42 32 0 34 -2 44 -48 24 -115 53
-345 54 -440 2 -79 5 -101 15 -97 7 3 10 0 7 -5 -3 -6 0 -10 8 -10 12 0 13 -7
4 -42 l-11 -43 -11 38 c-10 35 -12 25 -24 -115 -7 -84 -16 -175 -18 -201 -6
-60 3 -97 24 -97 8 0 32 5 52 11 l37 11 -4 146 c-8 266 -2 452 15 511 18 62
16 81 -26 319 -17 96 -31 189 -31 208 0 19 -10 53 -21 76 -12 23 -27 60 -33
82 -14 48 -64 78 -140 83 -45 4 -58 0 -106 -31z m-184 -382 c10 -14 13 -28 8
-33 -15 -13 -74 -34 -80 -28 -7 6 38 87 48 87 4 0 15 -11 24 -26z m48 -141
c20 -80 11 -99 -59 -133 -75 -36 -119 -7 -101 66 9 36 105 129 137 133 3 1 14
-29 23 -66z m155 -89 c7 -7 6 -122 -1 -130 -14 -13 -38 19 -54 72 -8 30 -12
59 -9 65 6 9 53 5 64 -7z m-9 -396 l32 -73 -36 -31 c-36 -31 -120 -64 -160
-64 -11 1 -43 7 -70 14 l-49 13 34 23 c64 45 134 108 164 149 17 22 35 41 41
41 6 0 26 -33 44 -72z"/>
<path d="M5258 2049 c-16 -9 -15 -14 13 -61 21 -36 29 -61 27 -86 -3 -39 -5
-40 -111 -62 -50 -10 -56 -14 -46 -27 19 -22 85 -53 114 -53 36 0 31 -18 -20
-66 -74 -71 -201 -100 -302 -69 -19 6 -23 4 -23 -16 1 -52 81 -109 153 -109
55 1 124 32 139 65 20 44 29 33 43 -48 5 -31 2 -46 -16 -71 -33 -49 -79 -76
-127 -76 -51 0 -77 -22 -86 -76 -4 -22 -13 -48 -20 -59 -11 -17 -10 -28 10
-73 13 -30 29 -52 38 -52 9 0 32 25 52 55 20 30 40 55 43 55 4 0 24 -35 45
-78 27 -55 36 -85 32 -100 -12 -37 -72 -75 -133 -83 -36 -5 -64 -15 -79 -30
-30 -28 -21 -38 37 -42 36 -2 45 -7 47 -24 2 -11 -8 -33 -22 -50 -21 -25 -23
-34 -16 -73 15 -79 18 -83 64 -77 23 3 94 9 158 13 111 7 119 8 134 32 13 20
15 39 11 88 -4 36 -2 77 5 94 5 17 7 34 4 38 -4 3 -9 -4 -13 -16 -3 -13 -21
-55 -39 -93 l-34 -71 -89 4 c-49 1 -92 6 -96 10 -4 4 -1 24 5 45 9 26 39 63
93 115 l80 78 -12 39 c-6 22 -23 54 -38 71 -25 31 -26 32 -10 65 17 36 12 46
-31 60 -13 4 -21 12 -19 18 4 14 145 86 170 86 27 1 20 -25 -14 -54 -17 -14
-29 -28 -27 -31 13 -12 241 113 235 130 -2 6 -24 21 -50 35 -46 23 -47 23 -97
7 -28 -9 -113 -46 -190 -82 -115 -54 -143 -64 -155 -54 -26 22 -16 39 28 50
118 30 214 86 242 140 16 30 15 32 -14 59 l-30 28 27 30 c15 17 50 47 78 67
81 57 79 68 -10 81 -45 7 -47 9 -41 34 11 42 44 88 91 127 24 20 44 42 44 48
0 7 -16 18 -35 25 -19 7 -58 28 -86 47 -52 35 -98 43 -131 23z"/>
<path d="M922 2034 c-12 -8 -21 -25 -21 -37 1 -20 2 -20 6 -2 8 33 19 37 18 7
0 -20 5 -27 20 -27 11 0 21 8 23 18 2 10 -3 17 -12 17 -9 0 -16 -5 -16 -11 0
-5 6 -7 13 -3 9 5 9 4 0 -6 -15 -16 -28 -7 -20 15 8 19 36 20 43 0 9 -24 -13
-43 -55 -47 l-37 -3 7 40 c4 22 6 41 5 42 -3 3 -103 -24 -115 -31 -17 -11 -13
-47 6 -70 10 -12 14 -18 9 -14 -5 4 -16 3 -25 -1 -14 -8 -16 -3 -12 36 2 36 0
45 -10 41 -89 -35 -100 -42 -105 -64 -8 -31 0 -41 33 -40 22 1 28 6 27 24 0
16 2 20 10 12 15 -15 -4 -41 -42 -57 l-30 -12 -7 40 c-8 45 -10 45 -74 4 -23
-14 -41 -32 -41 -39 0 -30 13 -46 39 -47 15 0 20 -3 11 -6 -8 -3 -24 -13 -34
-22 -11 -9 -17 -11 -13 -5 8 14 -14 85 -25 78 -11 -7 -10 -51 2 -59 6 -3 10
-14 9 -23 0 -12 -3 -11 -9 6 -6 13 -18 22 -32 22 -20 1 -21 2 -5 11 9 5 17 15
17 21 0 7 -16 -3 -35 -22 -19 -19 -35 -41 -34 -49 0 -12 3 -11 10 4 8 17 8 16
4 -7 -3 -15 -1 -30 5 -33 6 -4 7 1 3 12 -6 16 -5 16 10 5 9 -8 21 -11 27 -7
13 8 13 45 0 45 -5 0 -7 -6 -4 -14 3 -8 1 -17 -5 -21 -7 -4 -9 1 -5 12 5 15 4
16 -5 3 -6 -8 -11 -10 -11 -4 0 19 29 39 41 27 17 -17 6 -57 -18 -68 -13 -5
-23 -13 -23 -17 0 -16 19 -7 42 20 13 15 47 43 75 62 41 28 53 41 53 62 0 32
-7 37 -40 27 -20 -5 -21 -7 -6 -8 20 -1 20 -1 0 -17 -17 -14 -17 -15 -1 -10
11 3 16 2 12 -4 -9 -15 -32 -12 -39 6 -4 9 -2 13 5 8 7 -4 9 0 5 13 -5 15 2
22 28 34 l35 16 6 -39 c4 -21 9 -38 11 -38 3 0 27 11 54 25 39 20 50 31 50 49
0 51 -62 56 -73 6 -4 -17 -4 -17 -3 2 1 16 12 29 36 40 33 17 35 17 42 0 3 -9
7 -29 7 -43 l1 -27 55 21 c30 11 55 25 55 30 0 7 -4 7 -12 -1 -7 -7 -17 -12
-22 -12 -6 0 -3 5 7 11 20 12 23 45 4 52 -20 8 -41 -9 -34 -27 4 -9 2 -16 -3
-16 -14 0 -12 36 3 48 6 5 26 11 42 14 30 4 31 3 30 -37 l-2 -41 56 12 c31 7
58 13 61 14 3 1 29 1 58 0 29 -1 59 4 67 10 14 11 9 50 -8 62 -15 9 -37 -2
-37 -18 0 -16 26 -19 33 -4 3 6 4 5 3 -2 -5 -23 -36 -21 -46 4 l-10 23 3 -25
c1 -19 9 -26 32 -31 24 -6 20 -7 -17 -6 -33 0 -45 4 -39 11 4 6 11 23 13 39 5
26 4 27 -41 27 -26 0 -56 -7 -69 -16z m79 -31 c-5 -38 -5 -38 -10 -8 -4 20
-14 31 -31 36 -22 6 -21 7 10 8 36 1 36 1 31 -36z m-180 -45 c-10 -11 -11 -9
-5 6 6 15 4 17 -6 11 -9 -6 -11 -4 -5 4 5 9 10 10 18 2 8 -8 7 -14 -2 -23z
m-138 -35 c-5 -12 -3 -14 7 -8 9 6 11 4 5 -4 -5 -9 -11 -9 -17 -3 -6 6 -7 15
-4 21 11 17 16 13 9 -6z m-92 -96 c-10 -9 -11 -8 -5 6 3 10 9 15 12 12 3 -3 0
-11 -7 -18z"/>
<path d="M1193 2039 c-14 -14 -4 -59 14 -66 12 -5 12 -7 1 -14 -9 -6 -8 -9 8
-9 11 0 25 5 32 12 14 14 16 58 3 58 -5 0 -7 -8 -4 -19 3 -10 0 -22 -5 -25 -6
-4 -8 2 -5 14 4 14 0 20 -11 20 -9 0 -16 -5 -16 -11 0 -5 5 -7 12 -3 7 5 8 3
3 -5 -5 -9 -10 -10 -18 -2 -16 16 5 33 41 35 17 1 34 5 39 10 4 5 -11 6 -37 2
-31 -4 -40 -3 -30 4 13 9 13 10 0 10 -9 0 -21 -5 -27 -11z"/>
<path d="M8946 2035 c4 -8 -1 -26 -10 -39 -13 -20 -13 -30 -4 -57 10 -31 9
-34 -26 -66 -31 -29 -40 -32 -53 -22 -8 7 -19 23 -23 35 -9 22 -45 34 -106 34
-41 0 -44 -12 -8 -29 26 -11 26 -14 21 -77 -2 -36 -6 -67 -8 -69 -2 -1 -38 3
-79 11 -105 20 -190 28 -190 19 0 -5 17 -23 39 -41 48 -42 67 -81 81 -169 6
-39 18 -80 26 -93 21 -33 13 -47 -39 -65 l-45 -15 -9 32 c-9 31 -9 31 -73 31
-75 0 -86 -14 -49 -64 20 -27 21 -35 12 -66 -8 -26 -8 -42 0 -60 19 -41 50
-32 104 31 58 69 93 85 261 120 153 32 189 44 245 82 83 57 103 63 199 63 103
-1 121 -10 153 -82 17 -37 17 -40 1 -58 -16 -17 -16 -19 3 -24 21 -5 38 18 91
122 28 55 22 103 -16 138 -26 24 -33 25 -98 20 -90 -8 -178 -38 -353 -120
-116 -55 -180 -79 -293 -108 -24 -6 -16 130 10 182 23 45 30 47 48 18 32 -51
164 13 247 119 25 31 51 72 57 89 10 28 20 35 65 48 55 16 97 48 90 68 -6 20
-57 26 -99 11 -60 -21 -74 -18 -122 26 -46 43 -59 49 -50 25z m-16 -210 c0
-18 -48 -115 -56 -115 -14 0 5 92 21 110 22 24 35 26 35 5z"/>
<path d="M1294 2023 c-15 -11 -44 -72 -36 -77 22 -11 64 -15 84 -6 21 10 20
10 -7 5 -16 -3 -25 -2 -20 2 6 4 10 17 10 28 0 11 11 25 25 32 14 7 18 13 10
13 -8 0 -24 3 -35 5 -11 3 -25 2 -31 -2z m22 -24 c-8 -12 -12 -28 -9 -35 3 -9
-2 -14 -16 -14 -22 0 -21 1 5 35 28 38 45 49 20 14z"/>
<path d="M6611 1979 c-13 -28 -39 -70 -57 -95 -25 -32 -34 -54 -34 -82 0 -65
12 -69 64 -17 53 52 69 59 146 70 73 10 99 20 122 50 11 14 30 25 44 25 26 0
64 32 64 54 0 44 -56 43 -150 -4 -30 -15 -70 -31 -87 -35 -28 -6 -33 -4 -33
13 0 20 -35 72 -49 72 -4 0 -18 -23 -30 -51z"/>
<path d="M1404 1997 c16 -8 25 -16 20 -18 -5 -2 -19 -18 -31 -35 l-21 -31 36
-11 c33 -10 34 -10 19 5 -15 16 -15 19 8 49 l24 32 -23 6 c-13 3 -32 8 -43 11
-10 3 -5 -1 11 -8z"/>
<path d="M1333 1985 c-7 -20 -1 -26 27 -28 l22 -1 -22 -18 c-25 -20 -19 -24
11 -7 15 7 18 16 13 32 -11 36 -40 48 -51 22z m31 -3 c3 -5 -1 -9 -9 -9 -8 0
-15 4 -15 9 0 4 4 8 9 8 6 0 12 -4 15 -8z"/>
<path d="M851 1964 c0 -11 3 -14 6 -6 3 7 2 16 -1 19 -3 4 -6 -2 -5 -13z"/>
<path d="M1446 1954 c-17 -17 -21 -28 -7 -20 5 3 11 -3 14 -14 3 -12 13 -20
24 -19 16 1 16 2 1 6 -24 6 -23 33 1 33 43 0 33 -44 -12 -53 -19 -4 -18 -4 4
-6 28 -1 44 12 50 41 3 11 9 15 17 10 9 -6 4 -16 -17 -38 l-29 -30 56 -29 c30
-17 71 -45 91 -63 20 -18 46 -35 58 -38 13 -4 21 -9 18 -14 -6 -10 37 -47 53
-44 6 1 19 2 28 3 9 0 12 6 8 13 -4 7 -3 8 4 4 20 -12 13 -23 -19 -30 -36 -7
-29 -26 9 -25 l27 1 -25 8 c-24 8 -24 8 -2 9 26 1 40 27 23 44 -9 9 -17 8 -34
-2 -21 -13 -21 -12 -5 5 15 15 21 16 44 5 25 -11 26 -11 14 4 -19 22 -62 15
-76 -13 -9 -18 -13 -20 -17 -8 -7 17 27 46 52 46 16 0 -41 64 -71 81 -21 11
-56 0 -37 -12 15 -9 20 -49 6 -49 -5 0 -7 9 -4 19 5 22 -18 37 -29 19 -4 -6
-3 -8 3 -5 6 4 13 -4 15 -18 6 -31 -3 -32 -29 -1 l-21 24 34 18 c19 10 34 21
34 24 0 7 -46 42 -78 59 -19 10 -28 10 -49 -4 -16 -11 -23 -23 -20 -35 4 -16
2 -17 -12 -8 -16 10 -16 12 3 33 12 12 28 24 36 27 24 8 -50 42 -90 40 -31 0
-32 0 -10 8 23 7 23 8 3 9 -12 1 -29 -6 -37 -15z m137 -84 c-3 -11 0 -20 6
-20 6 0 11 5 11 12 0 6 3 8 7 4 5 -4 -1 -15 -12 -23 -20 -15 -20 -15 3 -10 12
3 20 1 16 -4 -3 -5 -1 -9 4 -9 6 0 13 7 16 16 3 8 2 12 -4 9 -6 -3 -10 3 -10
14 0 12 -6 21 -12 22 -10 0 -10 2 -1 6 7 2 24 -4 38 -15 l24 -19 -23 -22 c-22
-21 -26 -21 -57 -7 -19 8 -28 15 -21 15 7 1 10 6 7 11 -4 6 -4 17 -1 25 8 22
15 18 9 -5z m171 -83 l22 -23 -23 -17 c-25 -20 -37 -22 -27 -6 4 8 -1 9 -17 4
-22 -6 -22 -6 -6 7 10 7 19 23 20 36 2 28 5 28 31 -1z"/>
<path d="M1730 1770 c0 -19 3 -21 12 -12 9 9 9 15 0 24 -9 9 -12 7 -12 -12z"/>
<path d="M1470 1926 c0 -2 7 -6 15 -10 8 -3 15 -1 15 4 0 6 -7 10 -15 10 -8 0
-15 -2 -15 -4z"/>
<path d="M957 1903 c-4 -6 -19 -8 -33 -5 -20 3 -25 2 -19 -7 5 -8 1 -11 -11
-9 -13 2 -19 -3 -19 -17 0 -12 -9 -22 -25 -26 -14 -4 -19 -7 -12 -8 6 -1 13 0
15 2 10 7 37 -35 37 -57 0 -26 13 -35 25 -16 3 6 15 10 26 10 11 0 17 -4 14
-10 -7 -12 15 -13 31 -2 6 4 10 25 8 47 -1 22 -3 47 -3 56 -1 22 -27 54 -34
42z"/>
<path d="M1248 1884 c12 -22 4 -54 -14 -54 -8 0 -14 -7 -14 -16 0 -14 2 -15
17 -3 9 8 14 9 10 2 -4 -6 -1 -14 5 -16 8 -3 6 -6 -4 -6 -10 -1 -18 -8 -18
-16 0 -8 -6 -15 -12 -16 -19 -2 94 -38 117 -38 l20 0 -20 9 c-11 5 -14 9 -6 9
8 1 11 8 8 21 -4 17 -2 20 14 15 13 -4 19 -2 19 9 0 9 -5 16 -10 16 -17 0 -7
34 14 46 17 10 16 12 -15 24 -19 7 -41 14 -50 15 -9 1 -28 5 -43 9 -24 6 -26
4 -18 -10z m59 -100 c-3 -3 -12 -4 -19 -1 -8 3 -5 6 6 6 11 1 17 -2 13 -5z
m17 -23 c6 -10 -24 -25 -32 -16 -3 3 1 5 9 5 11 0 11 2 -1 10 -13 8 -13 10 2
10 9 0 19 -4 22 -9z m-57 -7 c-3 -3 -12 -4 -19 -1 -8 3 -5 6 6 6 11 1 17 -2
13 -5z"/>
<path d="M835 1870 c3 -5 11 -10 16 -10 6 0 7 5 4 10 -3 6 -11 10 -16 10 -6 0
-7 -4 -4 -10z"/>
<path d="M6935 1816 c-51 -16 -121 -52 -161 -82 -35 -27 -58 -29 -94 -9 -56
32 -58 9 -5 -75 18 -29 32 -40 50 -40 16 0 25 6 25 16 0 35 41 82 99 113 l59
31 21 -26 c43 -55 25 -94 -80 -176 l-34 -27 33 9 c32 9 178 83 195 99 10 10
-44 181 -57 180 -6 0 -29 -6 -51 -13z"/>
<path d="M4113 1777 c-1 -17 5 -55 14 -84 l17 -52 -28 -41 c-15 -23 -49 -64
-76 -92 -28 -29 -48 -54 -45 -56 7 -7 102 67 109 84 5 13 9 14 21 4 11 -9 22
-9 46 -1 17 6 41 8 54 5 28 -7 75 45 75 84 0 35 -88 135 -141 162 -21 11 -40
20 -41 20 -2 0 -4 -15 -5 -33z"/>
<path d="M6219 1797 l-27 -12 30 -35 c16 -19 39 -52 50 -72 20 -36 62 -58 79
-41 4 4 11 20 14 35 6 23 -1 35 -45 83 -56 58 -60 60 -101 42z"/>
<path d="M863 1765 c0 -22 2 -30 4 -17 2 12 2 30 0 40 -3 9 -5 -1 -4 -23z"/>
<path d="M365 1750 c-16 -16 -24 -30 -17 -30 6 0 14 5 17 10 11 17 21 11 41
-25 28 -52 39 -25 12 29 l-24 47 -29 -31z"/>
<path d="M592 1708 c-21 -21 -22 -21 -42 -3 -17 16 -20 16 -20 2 0 -9 5 -19
11 -23 7 -4 0 -17 -17 -35 -32 -33 -22 -40 13 -8 23 23 23 22 36 -21 2 -8 0
-28 -4 -43 -6 -20 -5 -27 4 -24 7 2 14 24 17 50 4 38 8 45 20 37 20 -13 70
-13 70 0 0 6 -12 10 -27 10 -16 1 -39 7 -52 14 l-23 13 26 21 c15 11 23 23 18
26 -5 3 -18 -5 -30 -16z"/>
<path d="M326 1702 c-11 -10 -6 -50 8 -61 7 -6 21 -9 30 -5 21 8 20 2 -3 -18
-19 -16 -20 -15 -39 22 l-19 39 -23 -32 c-13 -17 -23 -40 -23 -49 1 -10 -2
-16 -8 -13 -5 4 -9 -6 -9 -22 0 -22 2 -25 10 -13 7 11 10 12 10 2 0 -8 9 -12
23 -10 15 2 22 10 21 25 0 12 4 19 9 16 5 -3 7 0 5 8 -3 8 -17 13 -31 12 -24
-1 -25 0 -14 18 12 19 13 19 43 -13 l30 -34 33 44 c26 35 31 49 26 70 -4 15
-9 22 -12 15 -3 -8 -13 -9 -33 -3 -16 4 -31 6 -34 2z m30 -42 c8 0 14 5 14 11
0 5 -4 7 -10 4 -5 -3 -10 -1 -10 4 0 6 7 11 16 11 9 0 14 -7 12 -17 -5 -25
-43 -23 -44 2 -1 15 0 16 3 3 3 -10 11 -18 19 -18z m36 -12 c-6 -6 -7 0 -4 19
5 21 7 23 10 9 2 -10 0 -22 -6 -28z m-92 -88 c0 -5 -8 -10 -17 -10 -15 0 -16
2 -3 10 19 12 20 12 20 0z"/>
<path d="M995 1699 c-145 -22 -258 -80 -365 -188 -316 -318 -227 -840 178
-1041 84 -41 170 -60 282 -60 287 0 521 169 616 445 24 70 28 95 27 200 0 103
-4 132 -27 202 -33 100 -106 214 -183 282 -139 124 -350 188 -528 160z m194
-25 c83 -35 145 -110 159 -195 l7 -43 62 3 c34 1 79 -3 100 -9 137 -41 219
-194 179 -332 -18 -63 -86 -147 -136 -168 -16 -7 -30 -14 -30 -15 0 -2 9 -22
20 -46 26 -58 26 -159 1 -214 -43 -94 -123 -153 -221 -162 -77 -7 -134 9 -196
56 l-49 37 -48 -37 c-115 -86 -259 -78 -357 21 -88 87 -103 198 -46 331 5 11
-1 19 -18 27 -46 21 -103 82 -126 133 -42 99 -25 210 47 289 58 64 125 93 210
88 l64 -3 6 38 c3 20 20 61 37 89 69 116 211 163 335 112z"/>
<path d="M792 1385 c-16 -13 -34 -37 -40 -52 -6 -16 -15 -140 -21 -278 -6
-137 -13 -304 -16 -369 -6 -117 -2 -135 27 -136 4 0 6 73 4 163 -3 89 -1 137
2 107 4 -34 8 24 9 150 3 372 14 416 103 413 65 -3 103 -44 119 -128 6 -34 5
-45 -4 -45 -8 0 -11 -8 -8 -18 4 -16 13 -18 61 -15 72 5 82 9 82 28 0 11 -12
15 -48 15 l-49 0 -12 54 c-14 65 -42 103 -87 122 -50 21 -89 17 -122 -11z"/>
<path d="M1264 1396 c-39 -18 -80 -70 -89 -116 -4 -19 -13 -45 -21 -58 -16
-24 -11 -42 11 -42 8 0 18 21 25 53 25 114 53 147 126 147 54 0 81 -26 88 -84
9 -73 15 -265 16 -508 0 -195 2 -238 14 -238 7 0 16 14 20 31 9 47 7 241 -3
317 -6 37 -12 146 -15 242 -2 96 -9 187 -15 202 -20 53 -99 80 -157 54z m184
-612 l-3 -69 -5 77 c-3 42 -1 73 3 69 4 -4 7 -39 5 -77z"/>
<path d="M840 1240 c-26 -26 -28 -37 -35 -250 -3 -102 -8 -249 -12 -327 -6
-141 -6 -143 15 -143 21 0 21 3 21 238 0 279 10 449 25 460 37 29 72 13 88
-41 5 -17 6 -14 7 15 1 21 -6 43 -15 52 -21 22 -70 20 -94 -4z"/>
<path d="M1243 1252 c-11 -7 -33 -54 -33 -72 0 -5 14 -16 30 -25 28 -14 30
-14 30 1 0 9 -7 22 -16 28 -32 24 10 65 47 46 34 -19 39 -77 40 -433 1 -263 2
-288 17 -285 24 4 24 34 9 390 -12 302 -13 308 -37 333 -23 25 -63 33 -87 17z"/>
<path d="M977 1156 c-27 -7 -54 -19 -60 -26 -10 -10 -8 -11 8 -5 49 18 54 18
48 -4 -5 -19 -2 -20 28 -16 l34 5 -35 -14 -35 -15 45 6 c59 8 47 -4 -27 -26
-32 -9 -57 -21 -55 -27 5 -16 75 -35 106 -28 21 5 27 3 21 -6 -5 -9 -4 -11 4
-6 15 9 5 25 -22 35 -16 6 -2 13 64 30 46 13 89 27 96 33 8 6 22 4 42 -7 30
-15 31 -15 31 5 0 11 -5 20 -11 20 -5 0 -7 5 -4 10 21 34 -189 62 -278 36z
m210 -13 c28 -4 31 -8 22 -24 -5 -10 -20 -19 -32 -18 -12 0 -16 3 -9 6 20 8
14 33 -9 33 -15 0 -19 -5 -15 -15 4 -12 -4 -15 -42 -14 -26 1 -37 4 -24 6 26
5 30 30 5 36 -23 6 61 -2 104 -10z m-164 0 c-7 -2 -19 -2 -25 0 -7 3 -2 5 12
5 14 0 19 -2 13 -5z"/>
<path d="M941 1106 c-1 -10 -9 -25 -18 -33 -16 -13 -16 -13 7 -7 33 9 32 7 21
35 -8 20 -10 20 -10 5z"/>
<path d="M1175 1055 c-22 -7 -33 -14 -25 -15 8 -1 2 -6 -14 -12 -25 -9 -31 -8
-43 8 -12 17 -13 16 -13 -7 0 -39 -11 -69 -26 -69 -7 0 -16 -10 -19 -22 -3
-13 -9 -42 -14 -65 l-9 -42 29 6 c18 3 29 1 29 -6 0 -6 7 -11 15 -11 8 0 15 5
15 10 0 15 26 12 40 -5 7 -9 9 -19 5 -23 -4 -4 -10 -2 -12 5 -4 11 -38 10
-103 -3 -24 -5 -24 -6 -6 -20 15 -10 16 -14 5 -14 -8 0 -20 5 -26 11 -8 8 -13
8 -17 0 -26 -41 110 -64 177 -29 22 11 22 42 -2 76 -11 15 -22 48 -26 74 -4
28 -13 51 -22 57 -22 12 -25 41 -5 42 78 4 105 9 131 25 58 34 13 55 -64 29z
m-119 -203 c-11 -10 -14 3 -7 38 l6 35 3 -33 c2 -19 1 -36 -2 -40z m62 29 c3
-24 0 -32 -10 -29 -7 3 -14 19 -16 37 -3 24 0 32 10 29 7 -3 14 -19 16 -37z
m-38 -97 c0 -10 6 -14 15 -11 8 4 17 1 21 -4 4 -7 -5 -9 -22 -7 -27 3 -50 38
-25 38 6 0 11 -7 11 -16z"/>
<path d="M1610 1705 c0 -5 14 -23 31 -41 l31 -32 -41 -28 -42 -27 -29 28 c-16
16 -32 26 -35 24 -2 -3 20 -29 50 -59 30 -30 58 -50 62 -46 4 4 0 12 -10 17
-24 14 -21 25 13 46 17 9 30 24 30 32 0 12 3 12 12 3 22 -22 32 -12 10 11 -16
17 -19 26 -11 34 7 7 7 13 1 17 -6 3 -14 1 -17 -5 -5 -7 -15 -3 -31 12 -13 12
-24 19 -24 14z"/>
<path d="M1850 1683 c0 -7 8 -17 18 -23 14 -10 13 -11 -10 -7 -15 2 -26 0 -25
-6 1 -6 -9 -14 -23 -18 -14 -4 -23 -8 -20 -9 22 -7 44 -6 75 4 l37 13 -26 29
c-14 16 -26 24 -26 17z"/>
<path d="M6531 1679 c-13 -5 -32 -7 -42 -4 -16 5 -19 1 -18 -27 2 -64 12 -83
44 -83 29 0 30 2 37 60 3 33 5 61 5 61 -1 1 -13 -2 -26 -7z"/>
<path d="M1586 1641 c-9 -16 -12 -32 -7 -35 10 -6 37 52 28 60 -3 3 -13 -8
-21 -25z"/>
<path d="M7604 1628 c-13 -31 -6 -78 11 -78 22 0 35 -34 35 -89 l0 -50 -86
-26 c-78 -24 -96 -26 -178 -19 -87 7 -90 6 -76 -11 25 -30 130 -94 146 -88 9
3 14 -2 14 -15 0 -12 9 -27 20 -35 20 -14 20 -14 -6 -52 -52 -78 -55 -129 -8
-185 57 -67 135 -22 230 133 20 33 34 45 44 41 8 -3 22 -8 30 -11 15 -4 112
-168 125 -210 4 -15 19 -26 43 -33 52 -14 56 -13 79 18 20 27 20 29 3 86 -10
31 -30 75 -45 96 -29 42 -111 103 -162 121 -25 8 -33 17 -33 35 0 32 31 94 47
94 7 0 13 6 13 14 0 18 22 26 74 26 52 0 97 30 89 59 -3 11 -14 21 -25 24 -11
3 -22 15 -25 27 -6 21 -10 22 -71 15 -59 -6 -64 -5 -58 10 12 32 -37 81 -106
104 -81 28 -112 27 -124 -1z"/>
<path d="M1859 1613 c-4 -28 -3 -39 5 -50 5 -8 4 -13 -3 -13 -6 0 -18 14 -26
31 -9 17 -19 28 -22 25 -10 -10 47 -76 65 -76 32 0 45 16 38 45 -5 20 -4 25 6
19 10 -6 9 -3 -1 9 -13 17 -60 24 -62 10z m44 -10 c-7 -2 -21 -2 -30 0 -10 3
-4 5 12 5 17 0 24 -2 18 -5z m4 -29 c6 -15 -11 -34 -32 -34 -5 0 -4 4 3 9 11
7 10 9 -3 15 -9 3 -13 10 -10 16 10 15 35 12 42 -6z"/>
<path d="M1870 1576 c0 -2 7 -6 15 -10 8 -3 15 -1 15 4 0 6 -7 10 -15 10 -8 0
-15 -2 -15 -4z"/>
<path d="M321 1564 c0 -11 3 -14 6 -6 3 7 2 16 -1 19 -3 4 -6 -2 -5 -13z"/>
<path d="M1930 1566 c0 -8 7 -16 15 -20 13 -4 14 -2 5 14 -13 23 -20 26 -20 6z"/>
<path d="M194 1504 c-14 -32 -31 -67 -36 -77 -11 -21 11 -52 43 -62 11 -4 19
-11 19 -18 0 -8 -3 -8 -12 1 -7 7 -22 12 -35 12 -15 0 -23 6 -24 18 0 13 -2
12 -9 -6 -5 -12 -6 -30 -3 -39 4 -11 3 -14 -5 -9 -15 9 -15 1 -2 -25 6 -10 16
-19 22 -19 6 0 5 6 -3 17 -8 9 -9 14 -2 10 6 -4 19 0 28 10 16 16 16 17 -1 25
-18 7 -18 8 1 5 11 -1 24 -12 29 -24 9 -19 12 -16 29 30 11 29 20 62 19 74 0
13 3 21 7 19 3 -2 19 19 34 47 l28 52 -26 -28 c-14 -15 -26 -23 -26 -18 -1 6
-2 17 -3 24 0 6 -7 12 -14 12 -7 0 -17 6 -22 14 -6 11 -15 -1 -36 -45z m76
-38 c0 -5 -6 -1 -14 10 -12 15 -18 17 -33 8 -22 -13 -24 -46 -3 -56 11 -5 8
-7 -8 -7 -13 -1 -20 -5 -17 -11 9 -14 21 -12 39 6 21 20 21 6 0 -17 -15 -17
-18 -17 -40 -2 -24 15 -35 41 -12 27 8 -5 9 -2 4 12 -4 11 0 33 10 54 l17 35
29 -25 c15 -13 28 -29 28 -34z"/>
<path d="M1900 1527 c-14 -6 -26 -12 -28 -13 -6 -4 42 -94 51 -94 4 0 6 -3 4
-7 -2 -5 2 -24 9 -43 12 -28 13 -30 11 -9 -3 24 -1 26 22 20 42 -11 63 -3 55
22 -18 59 -45 97 -68 97 -53 0 -55 -62 -3 -72 20 -4 24 -1 23 21 -1 20 -6 26
-23 25 -13 0 -23 3 -23 8 0 5 10 8 23 6 19 -3 63 -65 53 -76 -2 -2 -20 0 -41
4 -35 6 -57 28 -69 69 -5 17 -1 20 31 23 43 3 53 10 33 22 -19 12 -29 12 -60
-3z m61 -80 c-8 -8 -14 -7 -23 2 -11 10 -9 11 6 5 15 -6 17 -4 11 6 -6 9 -4
11 4 5 9 -5 10 -10 2 -18z m-4 -43 c-3 -3 -12 -4 -19 -1 -8 3 -5 6 6 6 11 1
17 -2 13 -5z"/>
<path d="M4235 1494 c-48 -28 -144 -54 -197 -54 -48 0 -123 -31 -93 -38 10 -2
30 -11 42 -19 17 -12 39 -14 78 -10 l55 6 0 -30 c0 -23 -6 -31 -33 -43 -25
-10 -38 -25 -50 -55 -18 -45 -22 -98 -8 -120 13 -20 75 3 123 47 21 19 40 33
43 31 16 -17 -81 -142 -149 -191 -45 -33 -108 -38 -157 -12 -17 8 -33 13 -35
11 -9 -8 29 -138 45 -158 16 -19 16 -19 53 1 29 15 57 20 115 20 77 0 93 3
206 34 52 14 63 14 100 1 58 -20 64 -19 76 16 20 58 15 74 -30 94 -40 18 -43
18 -162 -3 -142 -26 -163 -27 -122 -5 17 8 41 25 54 37 38 35 101 133 101 159
0 29 -43 79 -62 72 -7 -3 -19 -1 -26 4 -12 7 -11 13 2 38 17 34 51 59 104 77
33 12 37 17 34 42 -4 30 -38 75 -56 73 -6 -1 -29 -12 -51 -25z"/>
<path d="M6698 1508 c-40 -11 -62 -31 -73 -66 -6 -22 -5 -23 44 -16 63 8 68
-9 16 -55 -64 -56 -69 -111 -9 -111 33 0 34 -2 34 -37 0 -26 8 -45 24 -62 22
-23 26 -41 36 -141 18 -178 8 -221 -77 -306 -52 -52 -188 -144 -270 -184 -29
-14 -52 -28 -53 -32 0 -9 57 1 82 14 10 5 29 6 42 2 17 -4 37 1 59 15 19 12
46 21 60 21 19 0 39 16 79 62 29 34 74 85 100 111 58 60 67 105 48 226 -11 66
-11 90 0 135 12 49 11 60 -3 93 -9 21 -21 57 -26 81 -5 24 -17 49 -26 56 -16
11 -15 15 12 47 15 19 31 36 36 37 16 8 5 62 -19 91 -28 33 -49 37 -116 19z"/>
<path d="M6024 1483 c-15 -24 -16 -33 -5 -72 19 -72 45 -106 92 -120 68 -21
83 11 41 94 -20 41 -70 103 -92 115 -14 8 -22 4 -36 -17z"/>
<path d="M1785 1423 c-33 -14 -61 -26 -62 -27 -2 -2 40 -108 52 -133 4 -7 135
52 135 61 0 22 -45 126 -55 125 -5 0 -37 -12 -70 -26z m79 -9 c3 -9 6 -23 6
-32 0 -21 -15 -5 -25 26 -7 25 9 31 19 6z m-28 -20 c5 -21 2 -31 -17 -45 -23
-17 -24 -17 -36 13 -7 17 -12 32 -11 33 11 8 44 24 50 25 4 0 11 -12 14 -26z
m-68 -29 c14 -29 -2 -34 -18 -6 -12 24 -13 31 -2 31 5 0 14 -11 20 -25z m92
-26 c0 -6 7 -9 15 -5 8 3 15 1 15 -3 0 -13 -34 -24 -38 -12 -2 6 -11 11 -20
11 -15 0 -15 2 -2 10 20 13 30 12 30 -1z m-20 -30 c0 -13 -28 -18 -33 -6 -3 7
3 13 14 13 11 0 19 -3 19 -7z"/>
<path d="M1803 1403 c-13 -5 -18 -35 -7 -46 11 -11 34 5 34 23 0 22 -10 29
-27 23z m17 -23 c0 -5 -4 -10 -10 -10 -5 0 -10 5 -10 10 0 6 5 10 10 10 6 0
10 -4 10 -10z"/>
<path d="M306 1433 c-3 -3 -6 -13 -6 -22 0 -14 2 -14 10 -1 8 13 10 12 10 -2
0 -10 -6 -18 -14 -18 -19 0 -28 -27 -10 -34 8 -3 14 0 14 7 0 7 7 21 15 31 15
19 15 19 15 -3 0 -12 -4 -19 -10 -16 -13 8 -13 -18 1 -32 7 -7 4 -12 -10 -16
-14 -3 -19 -1 -14 6 4 7 0 8 -11 4 -10 -4 -15 -3 -11 3 3 6 2 10 -3 10 -6 0
-13 -7 -16 -16 -9 -22 -8 -24 9 -24 8 0 24 -9 35 -20 26 -26 43 -26 35 1 -5
14 -3 19 3 15 6 -3 13 3 17 14 4 11 10 18 15 15 5 -3 2 -21 -6 -40 -8 -19 -10
-35 -5 -35 5 0 14 14 21 31 9 21 15 27 21 17 4 -7 11 -9 16 -5 4 4 2 16 -3 25
-7 11 -8 26 -2 41 10 28 -12 50 -50 51 -13 0 -31 4 -41 10 -10 5 -21 6 -25 3z
m104 -45 c0 -7 -5 -20 -10 -28 -8 -13 -10 -12 -10 3 0 9 -5 17 -11 17 -5 0 -7
5 -4 10 9 14 35 12 35 -2z"/>
<path d="M1972 1342 c-1 -14 4 -29 10 -34 10 -6 10 -8 1 -8 -7 0 -17 8 -22 18
-6 9 -10 13 -11 7 0 -15 13 -31 30 -38 12 -4 12 -6 -2 -6 -11 -1 -15 -7 -11
-23 17 -76 25 -98 35 -98 6 0 5 7 -3 17 -10 11 -10 14 -1 9 6 -4 12 -3 12 3 0
6 8 7 17 4 15 -6 15 -7 -3 -15 -18 -8 -18 -8 1 -5 26 3 28 43 3 41 -10 -1 -18
2 -18 7 0 5 9 9 20 9 23 0 41 -29 38 -64 -2 -21 -8 -26 -28 -26 -20 0 -22 2
-10 10 13 9 13 10 0 10 -39 0 -42 -14 -38 -136 3 -66 2 -108 -3 -94 -6 22 -7
23 -8 4 -1 -12 7 -28 16 -35 9 -8 14 -9 10 -3 -4 7 2 10 18 6 14 -2 25 0 26 7
5 51 3 56 -24 56 -20 -1 -27 4 -27 18 0 14 4 17 13 10 6 -5 24 -14 39 -20 25
-11 26 -11 25 25 0 20 -2 29 -4 19 -4 -13 -11 -16 -31 -11 -38 9 -48 21 -14
16 25 -3 31 0 40 27 16 46 11 169 -8 181 -21 14 -58 12 -62 -2 -3 -7 -7 -3
-10 8 -5 19 -2 20 38 14 43 -7 43 -6 37 19 -19 83 -27 96 -58 98 -26 1 -31 -3
-33 -25z m70 -32 c4 -25 1 -30 -16 -30 -15 0 -17 3 -8 12 7 7 12 21 11 33 0
19 -1 19 -9 -2 -12 -31 -22 -29 -10 1 5 13 6 28 2 32 -4 5 0 3 9 -4 9 -7 19
-26 21 -42z m-49 25 c-3 -9 -8 -14 -10 -11 -3 3 -2 9 2 15 9 16 15 13 8 -4z
m74 -229 c2 -2 -10 -8 -26 -14 -20 -7 -31 -17 -30 -29 1 -17 2 -17 6 0 2 9 8
17 13 17 5 0 15 3 24 6 9 3 16 1 16 -5 0 -6 -3 -10 -7 -10 -20 3 -34 -2 -29
-10 4 -5 0 -12 -6 -14 -8 -4 -7 -6 4 -6 9 -1 19 5 21 12 4 9 6 9 6 -1 1 -19
-27 -26 -44 -12 -9 7 -15 29 -15 51 0 37 0 38 31 29 18 -5 34 -11 36 -14z
m-34 -153 c-7 -2 -13 -11 -13 -18 0 -7 6 -16 13 -18 9 -4 9 -6 0 -6 -6 -1 -15
4 -18 9 -9 15 2 40 17 39 10 0 10 -2 1 -6z"/>
<path d="M2028 1103 c7 -3 16 -2 19 1 4 3 -2 6 -13 5 -11 0 -14 -3 -6 -6z"/>
<path d="M8640 1331 c0 -12 58 -54 110 -81 25 -12 46 -23 47 -25 4 -2 -15
-148 -22 -178 -5 -17 1 -33 20 -55 15 -17 24 -36 20 -41 -3 -6 -37 -8 -85 -4
-53 4 -80 2 -80 -5 0 -5 45 -33 100 -62 l100 -51 0 -40 c0 -46 -20 -91 -51
-113 -27 -19 -18 -46 14 -46 47 0 88 40 113 110 13 36 28 66 34 68 21 7 40 34
50 73 15 53 10 63 -37 77 -27 8 -53 28 -82 62 l-42 50 16 51 c10 28 37 80 62
116 35 52 42 68 32 79 -15 19 -84 18 -163 -2 -61 -15 -66 -15 -110 4 -25 12
-46 17 -46 13z"/>
<path d="M178 1308 c-15 -15 -16 -18 -3 -18 9 0 18 7 22 15 8 23 0 24 -19 3z"/>
<path d="M107 1253 c-8 -47 -18 -198 -11 -161 5 24 8 26 36 17 38 -10 53 -23
17 -14 -21 5 -29 1 -44 -21 -19 -29 -12 -54 16 -62 11 -3 11 -1 -1 7 -8 6 -10
11 -4 11 5 0 16 -6 23 -12 11 -10 13 -10 7 0 -4 6 -2 12 3 12 6 0 11 9 11 20
0 14 -7 20 -22 21 -20 1 -21 2 -4 6 12 3 25 -2 34 -13 13 -18 14 -18 11 1 -1
11 1 46 6 78 4 34 4 62 -2 68 -5 5 -8 -4 -7 -24 1 -25 0 -26 -3 -4 -2 15 -10
27 -16 27 -7 0 -6 4 3 10 11 7 12 10 2 10 -18 0 -42 -25 -42 -44 0 -22 27 -20
33 2 3 12 5 11 6 -6 1 -19 -3 -23 -21 -20 -17 2 -24 10 -26 33 -4 49 10 61 49
41 18 -9 33 -15 34 -14 2 2 5 19 9 38 6 34 5 34 -7 9 -10 -22 -14 -24 -24 -14
-10 11 -10 15 0 19 7 3 2 3 -10 1 -12 -3 -24 -1 -28 5 -12 20 -22 10 -28 -27z
m47 -107 c12 5 16 0 15 -17 0 -13 -3 -18 -6 -11 -2 6 -10 12 -17 12 -7 0 -21
7 -32 16 -18 15 -18 15 3 5 12 -6 29 -8 37 -5z"/>
<path d="M5954 1168 c13 -186 100 -276 185 -196 36 33 12 91 -51 124 -15 8
-50 48 -78 89 -28 41 -53 75 -57 75 -3 0 -3 -42 1 -92z"/>
<path d="M277 1066 c-8 -19 15 -37 32 -26 17 10 7 40 -13 40 -7 0 -16 -6 -19
-14z"/>
<path d="M1860 1061 c0 -15 6 -21 21 -21 25 0 22 33 -4 38 -12 2 -17 -3 -17
-17z"/>
<path d="M171 1012 c-1 -18 -5 -22 -21 -18 -11 3 -29 9 -40 12 -18 5 -20 1
-20 -38 1 -34 3 -39 11 -25 5 9 8 21 5 26 -3 4 14 5 37 0 23 -4 43 -6 44 -6 1
1 -2 18 -7 37 -6 25 -8 28 -9 12z"/>
<path d="M5463 1010 c-13 -5 -23 -18 -23 -28 0 -16 9 -20 53 -25 59 -6 83 8
72 42 -5 17 -14 21 -43 20 -20 0 -47 -4 -59 -9z"/>
<path d="M135 950 c3 -5 1 -10 -6 -10 -7 0 -9 -10 -6 -27 5 -26 4 -26 -9 -8
-12 16 -14 16 -14 2 0 -20 36 -41 56 -33 22 8 37 56 23 72 -13 16 -53 19 -44
4z m40 -11 c11 -16 1 -19 -13 -3 -7 8 -8 14 -3 14 5 0 13 -5 16 -11z"/>
<path d="M2060 943 c0 -4 5 -15 10 -23 8 -13 10 -13 10 2 0 9 -4 20 -10 23 -5
3 -10 3 -10 -2z"/>
<path d="M1820 924 c0 -10 -6 -14 -14 -11 -27 11 -26 -7 1 -31 16 -13 23 -21
16 -18 -6 4 -13 3 -16 -1 -2 -5 -2 -2 -1 5 2 6 -1 12 -6 12 -6 0 -10 -7 -10
-16 0 -8 -4 -13 -9 -10 -4 3 -8 -8 -7 -24 1 -33 12 -40 19 -12 4 15 5 15 6 -2
1 -13 6 -17 21 -13 14 4 20 0 21 -11 0 -12 3 -10 10 6 10 27 33 19 26 -9 -3
-11 -1 -19 4 -19 5 0 9 8 9 18 0 13 2 14 9 3 7 -10 10 -11 16 -1 5 8 2 18 -7
24 -8 6 -13 17 -11 24 3 6 0 12 -6 12 -6 0 -11 -6 -11 -12 0 -9 -4 -8 -10 2
-9 13 -11 13 -20 0 -8 -12 -10 -11 -10 8 0 18 5 22 33 22 25 0 37 -6 46 -22
11 -22 11 -21 7 7 -3 19 2 34 12 43 15 12 14 13 -11 7 -20 -4 -40 1 -64 15
-41 24 -43 24 -43 4z m50 -24 c12 -8 9 -10 -12 -10 -16 0 -28 5 -28 10 0 13
20 13 40 0z m-49 -73 c-10 -9 -11 -8 -5 6 3 10 9 15 12 12 3 -3 0 -11 -7 -18z"/>
<path d="M230 921 c0 -15 51 -51 72 -51 18 0 17 -4 -11 -35 -32 -36 -39 -55
-21 -55 5 0 16 13 25 30 15 30 60 60 90 60 8 0 15 5 15 10 0 6 -24 10 -54 10
-38 0 -60 6 -79 20 -28 22 -37 25 -37 11z"/>
<path d="M187 893 c-4 -6 -4 -18 -1 -27 4 -11 2 -15 -7 -12 -8 2 -27 7 -43 11
l-29 6 7 -42 c4 -23 12 -51 18 -63 6 -11 13 -31 14 -43 1 -12 9 -34 18 -50 13
-24 15 -25 16 -7 0 11 -6 26 -12 33 -11 10 -10 11 2 7 8 -3 29 -2 46 2 31 7
31 7 17 42 -11 30 -13 31 -9 8 3 -27 1 -28 -38 -27 -39 1 -39 2 -11 9 l30 7
-30 5 -30 5 28 2 c20 1 27 6 27 22 0 11 5 17 10 14 6 -3 10 -2 10 4 0 5 -5 13
-10 16 -6 4 -8 10 -6 13 2 4 1 23 -3 42 -4 20 -10 30 -14 23z m-17 -66 c-14
-7 -27 -21 -29 -32 -3 -18 -1 -17 16 4 22 27 44 21 36 -10 -4 -14 -12 -19 -24
-16 -11 3 -19 0 -19 -6 0 -20 -12 1 -19 35 -8 32 -7 33 28 35 35 3 35 3 11
-10z"/>
<path d="M167 803 c-10 -10 -8 -23 4 -23 5 0 8 4 5 9 -4 5 0 12 6 14 7 3 8 6
2 6 -6 1 -14 -2 -17 -6z"/>
<path d="M2056 882 c-5 -15 -13 -18 -28 -14 -21 5 -21 6 -2 12 13 5 7 7 -18 7
-29 -1 -38 -5 -38 -18 0 -10 -1 -23 -3 -31 -2 -7 1 -3 7 9 l9 21 38 -23 37
-24 7 36 c7 38 1 56 -9 25z"/>
<path d="M2014 827 c16 -12 15 -13 -10 -12 -15 0 -29 -6 -32 -15 -5 -13 -3
-13 12 -1 13 11 19 12 29 2 9 -10 7 -17 -12 -32 -14 -12 -18 -19 -9 -19 8 0
20 6 27 13 10 10 11 6 7 -18 -5 -23 -4 -25 3 -10 5 11 7 31 4 45 -4 20 -2 22
6 10 9 -13 11 -13 11 1 0 16 -30 49 -45 49 -5 0 -1 -6 9 -13z"/>
<path d="M1950 795 c0 -26 17 -37 39 -26 22 12 29 31 11 31 -6 0 -13 -7 -16
-15 -6 -14 -8 -13 -20 2 -7 10 -13 14 -14 8z"/>
<path d="M1933 739 c-7 -17 -9 -38 -6 -46 4 -11 2 -14 -5 -9 -8 5 -12 -2 -12
-19 0 -14 -3 -24 -8 -21 -4 2 -15 -8 -24 -24 -13 -23 -13 -28 -2 -23 8 3 14
12 14 21 0 9 12 0 28 -21 15 -20 29 -36 33 -37 8 0 49 89 49 109 0 25 -25 45
-49 38 -17 -4 -18 -2 -9 13 11 17 13 16 37 -6 25 -23 41 -30 41 -18 0 14 -22
44 -32 44 -6 0 -19 7 -28 15 -14 13 -17 11 -27 -16z m51 -62 c8 -12 5 -27 -12
-59 -12 -24 -22 -36 -22 -28 0 8 -9 21 -20 28 -12 7 -17 18 -13 27 3 9 8 14
11 11 2 -3 13 -1 23 5 12 6 19 6 19 0 0 -5 -6 -11 -12 -14 -8 -2 -7 -3 2 -3 8
1 15 10 15 21 0 13 -6 20 -17 19 -10 -1 -15 2 -12 8 8 12 25 6 38 -15z"/>
<path d="M1927 629 c7 -7 15 -10 18 -7 3 3 -2 9 -12 12 -14 6 -15 5 -6 -5z"/>
<path d="M386 715 c-21 -21 -21 -35 1 -35 12 0 14 -3 6 -11 -8 -8 -17 -8 -32
0 -21 12 -31 -2 -11 -14 6 -4 7 -11 4 -17 -5 -7 -12 -4 -21 7 -11 16 -13 16
-13 3 0 -8 7 -21 15 -28 8 -7 15 -18 15 -24 0 -7 7 -21 16 -32 14 -18 15 -18
8 5 -5 21 -3 23 15 18 24 -6 25 -3 9 26 -10 19 -7 18 21 -5 31 -27 67 -28 57
-3 -3 8 2 16 10 19 20 8 18 21 -15 66 -22 30 -31 36 -40 27 -9 -9 -14 -9 -20
1 -6 11 -11 10 -25 -3z m29 -25 c3 -6 -1 -7 -9 -4 -18 7 -21 14 -7 14 6 0 13
-4 16 -10z m35 0 c0 -5 -5 -10 -11 -10 -5 0 -7 5 -4 10 3 6 8 10 11 10 2 0 4
-4 4 -10z m-27 -42 c-3 -17 -2 -19 5 -9 11 16 27 -3 17 -20 -5 -7 -14 -4 -26
7 -14 13 -16 20 -8 31 16 18 18 17 12 -9z m58 6 c12 -14 11 -16 -5 -13 -11 2
-21 10 -24 17 -5 17 13 15 29 -4z m-97 -40 c3 -8 2 -12 -4 -9 -6 3 -10 10 -10
16 0 14 7 11 14 -7z"/>
<path d="M1687 671 l-26 -39 24 -16 c13 -9 29 -16 35 -16 13 0 13 -13 1 -25
-6 -6 3 -18 25 -33 26 -17 34 -19 34 -8 0 8 7 21 15 30 13 13 12 17 -13 35
-22 15 -32 17 -40 9 -22 -22 -13 17 9 41 18 19 19 25 8 32 -44 30 -46 29 -72
-10z m53 -3 c0 -7 -7 -22 -15 -32 -21 -27 -42 -8 -26 23 13 23 41 29 41 9z
m34 -108 c-14 -14 -38 5 -30 26 6 16 8 16 23 1 11 -11 14 -20 7 -27z"/>
<path d="M199 696 c-7 -35 -1 -50 19 -51 24 -2 30 11 10 18 -7 2 -5 3 5 2 9
-2 17 2 17 8 0 6 3 7 6 4 9 -9 -24 -57 -39 -57 -8 0 -8 3 2 9 10 7 7 9 -12 8
-19 -2 -23 -5 -15 -15 17 -20 51 -10 65 18 11 22 13 23 13 5 0 -12 6 -27 13
-34 9 -11 9 -12 0 -7 -7 4 -28 4 -48 0 l-35 -6 26 -49 c25 -45 57 -69 71 -55
4 3 -1 6 -9 6 -9 0 -22 7 -29 17 -13 15 -12 15 8 2 20 -12 25 -11 39 3 19 19
11 38 -17 38 -22 0 -21 -21 1 -28 8 -3 10 0 5 8 -6 9 -4 11 4 5 9 -5 10 -10 2
-18 -8 -8 -16 -7 -27 5 -24 23 -8 41 29 34 23 -5 28 -3 20 5 -18 18 -67 7 -73
-18 l-5 -22 -11 24 c-11 23 -10 24 32 31 l44 6 -27 52 c-22 40 -34 52 -55 54
-16 2 -28 1 -29 -2z m44 -13 c-7 -2 -21 -2 -30 0 -10 3 -4 5 12 5 17 0 24 -2
18 -5z"/>
<path d="M1775 661 c-14 -29 -14 -30 15 -51 l30 -21 10 25 c5 14 15 26 22 26
13 1 -11 23 -44 41 -14 7 -20 3 -33 -20z m49 -10 c3 -5 0 -13 -7 -19 -15 -13
-42 1 -33 17 9 13 33 15 40 2z"/>
<path d="M1905 582 c5 -9 1 -12 -11 -10 -23 4 -26 -34 -4 -44 11 -5 8 -7 -8
-7 -13 -1 -20 -5 -17 -11 4 -6 16 -8 28 -5 12 4 17 3 11 -2 -6 -4 -13 -14 -15
-21 -3 -9 -15 -1 -33 22 l-29 34 -34 -43 c-18 -24 -33 -52 -32 -62 1 -13 3
-11 10 7 8 24 8 24 6 -5 -2 -25 1 -29 18 -27 28 5 39 18 31 37 -6 17 -26 12
-26 -6 0 -6 5 -7 10 -4 6 3 10 1 10 -4 0 -14 -17 -14 -25 -1 -10 16 14 40 32
33 11 -5 14 -3 9 6 -5 7 -17 10 -28 8 -20 -6 -20 -5 -2 12 18 18 20 18 39 -15
11 -19 22 -34 25 -34 10 0 45 65 42 79 -2 7 1 10 7 6 23 -14 24 27 1 48 -13
12 -19 16 -15 9z"/>
<path d="M1846 562 c-9 -29 3 -51 16 -28 5 10 5 23 0 33 -9 14 -10 14 -16 -5z"/>
<path d="M4528 565 c-29 -8 -34 -12 -23 -20 12 -8 15 -43 16 -176 1 -92 -1
-171 -5 -178 -5 -7 6 -11 35 -11 33 0 39 3 30 13 -6 9 -12 83 -13 198 l-3 185
-37 -11z"/>
<path d="M2549 550 c18 -4 37 -14 42 -22 5 -7 9 -81 9 -165 0 -125 -3 -154
-16 -167 -14 -15 -12 -16 17 -16 26 0 30 3 21 12 -15 15 -17 292 -2 283 5 -3
65 -77 132 -163 l123 -157 5 190 5 189 25 13 c23 11 19 13 -40 12 -49 0 -60
-2 -42 -9 12 -5 25 -16 28 -23 2 -7 3 -66 2 -130 l-3 -116 -110 139 -110 140
-60 -1 c-52 -1 -56 -2 -26 -9z"/>
<path d="M4876 520 c-22 -56 -20 -71 5 -32 22 34 65 62 97 62 38 0 42 -18 42
-187 0 -144 -2 -163 -17 -172 -14 -8 -4 -10 42 -11 42 0 55 3 45 10 -12 7 -16
39 -18 157 -4 164 4 203 40 203 31 0 83 -33 104 -65 25 -38 27 -24 5 29 l-20
46 -155 0 -154 0 -16 -40z"/>
<path d="M6940 547 c24 -12 25 -15 30 -152 3 -90 10 -148 18 -163 30 -53 150
-78 217 -46 54 25 65 62 65 212 0 135 3 144 45 155 11 2 -14 5 -55 5 -63 0
-70 -1 -42 -9 l32 -10 0 -135 c0 -180 -17 -214 -108 -214 -45 0 -84 26 -101
68 -7 17 -11 74 -9 152 3 121 4 125 28 137 22 11 15 13 -60 13 -75 0 -82 -2
-60 -13z"/>
<path d="M340 528 c9 -26 7 -28 -30 -39 -30 -9 -37 -15 -29 -25 8 -10 18 -9
50 5 22 10 41 20 42 22 1 3 -8 18 -21 34 l-22 30 10 -27z"/>
<path d="M3476 535 c-27 -28 10 -69 40 -44 20 16 17 37 -5 49 -15 7 -23 6 -35
-5z"/>
<path d="M5597 538 c-21 -11 -22 -31 -3 -47 20 -16 46 -3 46 24 0 27 -19 37
-43 23z"/>
<path d="M7712 538 c-16 -16 -15 -33 4 -48 22 -19 54 12 38 37 -14 22 -27 26
-42 11z"/>
<path d="M8887 538 c-21 -11 -22 -31 -3 -47 20 -16 46 -3 46 24 0 27 -19 37
-43 23z"/>
<path d="M536 486 c-44 -52 -56 -76 -37 -76 4 0 29 -18 53 -40 l46 -40 46 56
c25 31 46 60 46 64 0 7 -95 90 -103 90 -3 0 -25 -24 -51 -54z m79 14 c14 -16
15 -20 4 -20 -16 0 -39 19 -39 32 0 14 16 9 35 -12z m-21 -23 c17 -13 17 -15
1 -46 -9 -18 -17 -31 -19 -29 -1 1 -8 12 -16 22 -14 17 -13 18 6 12 26 -8 40
17 19 34 -16 14 -35 5 -35 -16 0 -8 -4 -14 -10 -14 -15 0 -12 11 7 32 19 22
24 22 47 5z m68 -44 c-16 -29 -49 -56 -56 -44 -4 5 3 12 14 16 11 3 20 11 20
17 0 5 -7 8 -15 4 -8 -3 -15 -2 -15 3 0 15 13 21 26 10 11 -9 15 -7 20 5 4 9
9 15 11 12 3 -2 0 -13 -5 -23z m-118 -9 c9 -3 16 -10 16 -15 0 -14 -26 -10
-40 6 -13 16 -3 20 24 9z m36 -44 c0 -5 -2 -10 -4 -10 -3 0 -8 5 -11 10 -3 6
-1 10 4 10 6 0 11 -4 11 -10z"/>
<path d="M1569 511 c9 -15 7 -20 -10 -24 -15 -4 -19 -2 -15 9 4 11 -3 9 -24
-6 -42 -30 -44 -37 -21 -69 20 -28 59 -37 53 -11 -1 6 2 9 8 5 8 -5 8 -11 -1
-21 -6 -7 -15 -11 -20 -8 -12 7 -11 0 3 -31 15 -33 23 -32 45 5 10 17 22 29
28 26 6 -2 23 6 38 18 l27 22 -31 48 c-19 28 -37 45 -45 42 -7 -3 -16 -1 -19
4 -12 19 -26 11 -16 -9z m91 -83 c0 -20 -17 -4 -38 35 l-23 42 31 -35 c16 -19
30 -38 30 -42z m-47 23 c20 -34 22 -50 5 -33 -9 9 -15 9 -27 0 -13 -10 -14
-10 -4 2 10 11 9 18 -9 37 -21 22 -21 23 -2 23 11 0 27 -13 37 -29z m-89 -27
c3 -8 2 -12 -4 -9 -6 3 -10 10 -10 16 0 14 7 11 14 -7z"/>
<path d="M353 469 c-27 -10 -31 -21 -5 -12 14 5 15 3 5 -8 -7 -7 -13 -18 -13
-23 0 -6 5 -4 10 4 7 12 9 10 7 -8 -2 -27 -18 -24 -32 6 -5 12 -13 22 -17 22
-16 0 -7 -17 22 -45 26 -25 33 -27 55 -17 15 7 25 20 26 34 1 17 2 19 6 6 2
-10 10 -18 16 -18 7 -1 -5 -10 -27 -21 l-38 -21 38 -39 c25 -25 47 -39 64 -39
20 0 22 2 10 11 -13 9 -12 10 2 5 10 -3 20 0 24 6 5 7 2 8 -6 3 -10 -6 -12 -4
-7 8 4 10 -2 22 -16 33 l-22 16 23 -5 c12 -3 20 -1 16 4 -16 26 -64 0 -64 -34
0 -16 -3 -17 -15 -7 -22 18 -19 25 20 46 l35 18 -33 34 c-42 44 -57 51 -84 41z
m38 -61 c-11 -11 -13 -10 -7 0 4 7 2 21 -5 30 -12 15 -11 15 6 0 16 -15 17
-20 6 -30z m84 -61 c14 -11 15 -16 5 -22 -8 -5 -11 -4 -7 2 4 6 0 14 -9 17
-12 5 -15 2 -10 -9 3 -9 2 -13 -4 -10 -12 7 -13 35 -2 35 5 0 16 -6 27 -13z
m-20 -45 c-3 -3 -11 0 -18 7 -9 10 -8 11 6 5 10 -3 15 -9 12 -12z"/>
<path d="M1841 439 c0 -14 -12 -36 -25 -48 l-24 -22 -21 27 c-11 15 -21 32
-21 37 0 6 -18 -7 -40 -28 -46 -45 -51 -82 -13 -100 19 -10 20 -12 5 -21 -13
-9 -19 -6 -29 14 -7 13 -13 31 -13 38 0 19 -3 18 -55 -18 -34 -24 -45 -38 -44
-57 1 -21 2 -22 6 -6 3 11 10 26 15 32 11 14 71 46 64 34 -3 -4 1 -24 8 -44
l12 -36 47 40 c26 22 47 48 47 57 0 13 2 14 9 4 13 -21 84 70 78 100 -4 22 -4
22 -6 -3z m-89 -90 l-9 -23 -5 22 c-4 14 -2 20 4 15 7 -3 8 -1 4 5 -10 16 -51
-2 -51 -22 0 -19 18 -23 24 -5 2 7 -1 9 -8 5 -6 -4 -11 -2 -11 3 0 14 17 14
25 1 10 -16 -14 -40 -31 -33 -23 9 -13 56 14 68 12 5 22 14 22 20 0 5 7 0 15
-12 10 -15 12 -29 7 -44z"/>
<path d="M3302 440 c-7 -12 -24 -26 -37 -32 -30 -13 -32 -28 -6 -35 16 -4 19
-16 23 -90 2 -71 6 -87 23 -99 25 -19 73 -11 98 16 9 11 12 15 5 10 -7 -6 -25
-10 -40 -10 -31 0 -30 -4 -30 105 0 70 0 70 28 70 15 0 29 6 31 13 3 8 -6 12
-26 12 -30 0 -38 14 -32 53 2 15 -25 6 -37 -13z"/>
<path d="M9042 424 c-33 -33 -35 -54 -6 -54 11 0 14 -18 14 -90 0 -78 2 -91
19 -100 29 -15 52 -12 85 9 l29 20 -41 -6 -42 -6 0 92 c0 56 4 90 10 86 12 -8
60 5 60 16 0 5 -16 9 -35 9 -32 0 -35 2 -35 30 0 38 -16 37 -58 -6z"/>
<path d="M3936 400 c-32 -15 -36 -19 -21 -27 14 -8 16 -23 13 -101 l-3 -92 38
0 c34 0 37 2 27 19 -14 27 -12 131 3 161 10 19 20 25 47 25 l35 0 0 -103 0
-102 40 1 c22 0 34 3 28 6 -9 3 -13 32 -13 93 0 67 -4 92 -16 104 -24 25 -60
29 -95 12 -39 -20 -37 -20 -41 2 -3 18 -5 18 -42 2z"/>
<path d="M6446 400 c-32 -15 -36 -19 -21 -27 14 -8 16 -23 13 -101 l-3 -92 30
0 30 0 -3 80 c-5 100 11 133 61 128 l32 -3 0 -103 0 -102 30 0 30 0 -5 96 c-5
92 -6 98 -33 118 -27 20 -30 20 -72 5 -41 -15 -44 -15 -47 1 -3 16 -5 16 -42
0z"/>
<path d="M7407 400 c-33 -15 -36 -18 -22 -30 13 -11 16 -30 13 -102 l-3 -88
30 0 30 0 -3 81 c-4 95 11 129 57 129 37 0 41 -12 41 -115 0 -57 -4 -85 -12
-88 -7 -3 5 -6 27 -6 l40 -1 -5 93 c-3 55 -10 100 -18 110 -20 23 -58 29 -96
13 -32 -13 -35 -13 -38 3 -3 17 -5 17 -41 1z"/>
<path d="M3054 403 c-29 -6 -57 -37 -52 -60 6 -32 34 -26 56 12 23 37 46 45
56 19 15 -38 6 -52 -38 -63 -81 -20 -118 -79 -77 -120 25 -25 49 -26 95 -7 29
12 36 12 48 -1 12 -11 20 -12 41 -2 27 12 39 36 13 26 -26 -10 -36 16 -36 94
0 52 -4 80 -13 88 -17 13 -64 21 -93 14z m66 -143 c0 -34 -4 -42 -26 -52 -27
-12 -54 -3 -62 20 -5 15 52 72 72 72 12 0 16 -10 16 -40z"/>
<path d="M3700 403 c-82 -26 -113 -99 -75 -173 54 -105 225 -58 225 62 0 67
-87 132 -150 111z m57 -18 c66 -46 46 -205 -27 -205 -42 0 -70 40 -70 102 0
92 45 140 97 103z"/>
<path d="M4284 396 c-33 -15 -47 -37 -38 -61 10 -25 34 -17 56 20 25 44 52 43
56 -2 3 -30 1 -32 -33 -39 -20 -3 -50 -18 -66 -31 -70 -59 -1 -144 80 -99 21
12 28 12 47 -1 17 -11 27 -12 43 -3 26 13 28 32 4 28 -16 -3 -18 7 -21 78 -2
63 -7 85 -21 98 -25 23 -71 28 -107 12z m76 -141 c0 -39 -3 -45 -25 -51 -14
-3 -32 -4 -40 0 -25 9 -18 52 13 75 42 31 52 27 52 -24z"/>
<path d="M5374 403 c-29 -6 -57 -37 -52 -60 6 -32 34 -26 56 12 23 37 46 45
56 19 15 -38 7 -51 -40 -63 -81 -21 -117 -78 -74 -121 23 -23 48 -25 93 -6 27
11 34 11 45 0 17 -19 26 -18 53 6 16 14 19 20 9 19 -38 -4 -40 0 -40 85 0 58
-4 87 -13 95 -17 13 -64 21 -93 14z m66 -143 c0 -33 -4 -42 -24 -52 -29 -13
-54 -5 -63 18 -4 12 4 26 25 46 46 40 62 37 62 -12z"/>
<path d="M6200 393 c-26 -13 -35 -25 -35 -43 0 -39 29 -36 53 5 23 37 46 45
56 19 14 -36 6 -52 -26 -59 -53 -12 -84 -32 -97 -64 -25 -60 27 -97 99 -68 34
13 40 13 54 -1 12 -13 20 -13 41 -4 26 12 36 38 11 29 -26 -10 -36 16 -36 94
0 52 -4 80 -13 88 -26 21 -71 22 -107 4z m80 -133 c0 -34 -4 -42 -26 -52 -27
-12 -54 -3 -62 20 -5 15 52 72 72 72 12 0 16 -10 16 -40z"/>
<path d="M8183 396 c-108 -49 -65 -226 54 -226 31 0 93 34 93 51 0 6 -12 1
-26 -10 -15 -12 -36 -21 -48 -21 -31 0 -76 50 -76 83 0 27 0 27 75 27 l75 0
-6 28 c-15 62 -81 95 -141 68z m83 -31 c21 -32 16 -37 -36 -39 -48 -2 -57 7
-39 40 17 32 54 31 75 -1z"/>
<path d="M8431 389 c-37 -13 -40 -17 -22 -22 19 -5 21 -12 21 -90 0 -59 -4
-87 -12 -90 -7 -3 10 -5 37 -5 28 0 44 2 38 5 -20 8 -17 143 3 172 15 21 18
21 26 7 12 -21 47 -21 55 0 3 8 -2 23 -10 32 -15 15 -19 15 -51 -1 -26 -12
-35 -13 -38 -4 -2 10 -13 9 -47 -4z"/>
<path d="M8660 397 c-18 -9 -26 -22 -28 -45 -4 -43 9 -57 69 -77 59 -20 79
-48 53 -76 -28 -31 -72 -24 -109 15 l-33 35 10 -39 c10 -38 10 -38 61 -39 68
-1 102 14 118 50 10 26 9 34 -7 56 -11 14 -43 35 -71 46 -29 10 -54 26 -58 34
-7 20 10 41 38 46 20 4 20 4 2 5 -11 1 -31 -4 -45 -11z"/>
<path d="M8747 403 c-16 -4 -15 -7 8 -25 14 -10 25 -27 25 -35 0 -9 3 -14 6
-10 8 8 -5 77 -14 76 -4 -1 -15 -3 -25 -6z"/>
<path d="M1351 391 c-11 -7 -10 -10 5 -14 10 -3 2 -4 -19 -2 -25 2 -37 -1 -34
-8 2 -7 17 -11 34 -11 23 1 30 -3 26 -12 -6 -16 -23 -19 -23 -4 0 5 -6 7 -14
4 -7 -3 -13 -12 -12 -21 0 -9 -6 -18 -14 -20 -13 -4 -13 -3 0 6 13 9 12 11 -5
12 -11 0 -14 3 -7 6 6 2 12 9 12 14 0 6 -4 7 -10 4 -6 -3 -7 1 -4 10 5 11 2
14 -9 9 -20 -7 -18 -95 3 -102 7 -3 10 0 6 6 -3 6 -2 13 3 16 5 4 12 2 15 -3
3 -5 16 -7 28 -3 14 3 19 1 14 -6 -3 -6 -20 -13 -36 -17 -17 -4 -30 -11 -30
-16 0 -9 17 -7 59 9 10 4 13 1 8 -11 -3 -9 -2 -17 4 -17 6 0 13 9 16 19 3 11
18 24 34 30 38 13 38 24 0 16 -26 -6 -29 -4 -24 14 6 23 19 28 26 9 2 -7 8 -9
13 -5 4 4 3 16 -4 25 -7 9 -18 29 -25 45 -12 30 -15 31 -36 18z"/>
<path d="M3481 384 c-30 -14 -32 -16 -16 -27 14 -11 16 -27 13 -95 l-3 -82 30
0 30 0 -3 110 c-2 60 -6 110 -10 109 -4 0 -22 -7 -41 -15z"/>
<path d="M5605 387 c-39 -13 -40 -14 -24 -30 11 -10 13 -34 9 -95 l-5 -82 30
0 30 0 -3 87 c-4 138 -2 131 -37 120z"/>
<path d="M5719 393 c7 -3 37 -55 65 -115 l52 -110 34 73 33 74 31 -67 c17 -38
34 -68 37 -68 3 0 26 43 50 96 24 53 49 103 57 110 11 12 7 14 -25 13 -21 0
-32 -3 -25 -6 18 -7 15 -23 -14 -89 l-26 -59 -29 64 c-22 49 -26 67 -18 77 9
12 2 14 -40 14 l-51 0 20 -20 c25 -25 25 -41 -1 -92 l-21 -41 -28 64 c-21 46
-26 67 -18 76 8 10 -1 13 -43 12 -30 0 -48 -3 -40 -6z"/>
<path d="M7710 382 c-27 -12 -31 -16 -17 -20 16 -3 18 -13 15 -93 l-3 -89 30
0 30 0 -3 110 c-2 60 -6 110 -10 109 -4 0 -23 -8 -42 -17z"/>
<path d="M7842 387 c7 -8 33 -57 58 -110 25 -53 47 -96 50 -96 3 -1 30 49 61
109 l55 110 -26 0 c-23 0 -27 -4 -23 -24 3 -13 -7 -46 -22 -77 l-27 -53 -29
54 c-31 61 -35 86 -16 93 6 3 -12 6 -41 6 -44 1 -51 -1 -40 -12z"/>
<path d="M8895 387 c-38 -12 -42 -16 -26 -26 14 -9 20 -148 7 -169 -5 -9 5
-12 35 -12 33 0 39 3 31 13 -6 7 -13 56 -14 108 l-3 96 -30 -10z"/>
<path d="M9222 383 c9 -10 37 -60 62 -111 48 -96 50 -111 20 -160 -14 -21 -16
-21 -38 -7 -22 14 -25 14 -40 0 -20 -21 -5 -55 25 -55 38 0 74 52 128 188 30
73 60 140 68 148 13 12 9 14 -24 14 -27 0 -34 -3 -24 -9 12 -8 10 -22 -16 -88
l-30 -78 -32 69 c-36 79 -38 93 -13 99 9 3 -10 5 -42 6 -56 1 -58 0 -44 -16z"/>
<path d="M810 381 c0 -6 -9 -11 -20 -11 -15 0 -20 -7 -20 -29 0 -25 3 -28 22
-23 14 3 19 2 14 -6 -4 -7 -16 -12 -27 -12 -10 0 -19 -4 -19 -10 0 -5 7 -10
15 -10 8 0 15 -5 15 -11 0 -6 -9 -9 -20 -6 -11 3 -20 1 -20 -4 0 -5 6 -9 13
-9 7 0 30 -9 52 -20 46 -23 69 -26 40 -4 -16 12 -17 16 -6 23 7 5 10 14 7 20
-5 7 1 11 13 11 34 0 36 1 45 18 6 10 5 17 -1 19 -6 2 -8 14 -6 27 4 19 0 24
-24 29 -15 4 -38 9 -50 13 -14 4 -23 2 -23 -5z m30 -21 c0 -5 -2 -10 -4 -10
-3 0 -8 5 -11 10 -3 6 -1 10 4 10 6 0 11 -4 11 -10z m50 -10 c0 -5 -6 -10 -14
-10 -8 0 -18 5 -21 10 -3 6 3 10 14 10 12 0 21 -4 21 -10z m-80 -4 c0 -2 -7
-6 -15 -10 -8 -3 -15 -1 -15 4 0 6 7 10 15 10 8 0 15 -2 15 -4z m44 -36 c4 0
4 4 1 10 -3 6 1 7 10 4 11 -4 13 -10 7 -16 -16 -16 -45 -5 -48 17 -3 19 -2 19
10 3 7 -10 16 -18 20 -18z m-23 -27 c-11 -5 -11 -7 0 -14 11 -7 10 -9 -3 -9
-18 0 -23 11 -11 23 3 4 11 7 17 6 6 0 5 -3 -3 -6z"/>
<path d="M510 351 c0 -5 9 -16 19 -23 18 -13 16 -15 -20 -32 -43 -21 -42 -25
4 -57 l32 -23 -19 22 c-20 22 -20 23 0 42 16 16 24 18 49 10 l30 -10 -32 5
c-22 3 -33 0 -37 -11 -3 -8 -2 -13 3 -10 5 3 11 -4 14 -15 4 -13 12 -20 24
-17 20 4 21 20 2 27 -7 2 -9 -1 -5 -8 4 -6 2 -11 -3 -11 -6 0 -11 7 -11 15 0
19 36 20 43 1 6 -16 -8 -31 -38 -39 -12 -4 -9 -5 10 -4 19 1 33 10 40 23 8 17
15 19 38 11 15 -5 25 -13 21 -18 -3 -5 0 -9 6 -9 6 0 8 -5 4 -11 -4 -8 -9 -7
-15 2 -6 11 -9 10 -15 -4 -3 -9 0 -25 7 -35 11 -14 11 -15 -1 -4 -8 6 -21 12
-29 12 -13 -1 -12 -3 3 -15 10 -8 30 -13 45 -11 14 2 20 1 13 -1 -17 -6 14
-23 82 -46 33 -11 54 -14 66 -7 25 13 33 40 18 58 -11 13 -10 15 5 9 10 -4 23
-7 29 -7 6 0 -2 -16 -17 -36 -15 -19 -25 -37 -23 -40 11 -11 126 -16 132 -5 4
6 1 9 -6 8 -7 -2 -10 -2 -5 0 4 3 7 16 7 30 0 22 -4 25 -25 21 -13 -3 -22 -1
-19 3 7 11 55 11 72 0 11 -7 11 -15 -2 -45 l-15 -36 42 1 c27 1 33 3 16 6 -26
4 -26 5 -13 41 l12 37 -31 7 c-93 19 -159 26 -184 19 -27 -7 -27 -8 -5 -13 16
-5 23 -13 20 -25 -4 -23 -51 -29 -77 -11 -19 14 -19 15 5 44 14 16 22 23 18
15 -5 -11 -3 -13 10 -8 10 4 23 7 29 7 11 1 -14 12 -78 34 -19 7 -19 7 -2 -7
14 -12 15 -17 5 -23 -23 -15 -38 -13 -38 6 0 10 -6 21 -12 23 -7 3 -4 6 7 6
13 1 1 12 -35 30 -38 20 -57 25 -62 17 -8 -11 -9 -8 -12 17 0 6 -11 13 -24 15
-12 2 -21 6 -18 10 2 4 -10 17 -25 30 -16 13 -29 19 -29 13z m221 -185 c7 4
10 1 7 -6 -2 -8 -10 -16 -18 -18 -7 -3 -10 0 -6 7 4 6 -3 15 -18 21 -14 5 -26
12 -26 14 0 3 7 3 15 0 9 -4 15 0 16 7 0 8 4 4 10 -9 5 -14 14 -20 20 -16z
m187 -32 c-11 -22 -10 -28 7 -40 13 -10 15 -14 4 -14 -31 0 -38 14 -24 48 8
17 16 32 19 32 3 0 0 -12 -6 -26z"/>
<path d="M1592 288 c-19 -19 -14 -48 11 -57 22 -9 22 -9 -7 -20 -16 -6 -26
-14 -23 -17 13 -13 77 38 77 60 0 24 -17 46 -35 46 -6 0 -16 -5 -23 -12z m11
-25 c-5 -12 -3 -14 7 -8 9 5 11 4 6 -3 -11 -19 -26 -14 -26 8 0 11 4 20 10 20
5 0 6 -7 3 -17z m37 -8 c0 -8 -3 -16 -7 -18 -5 -3 -8 5 -8 18 0 13 3 21 8 18
4 -2 7 -10 7 -18z"/>
<path d="M1071 276 c-9 -10 -8 -16 4 -26 19 -16 41 1 32 24 -8 20 -21 20 -36
2z"/>
<path d="M1515 260 c-18 -12 -24 -20 -14 -20 8 0 20 5 25 10 7 7 11 5 11 -7
-1 -52 4 -74 15 -71 15 5 17 26 4 70 l-11 38 -30 -20z"/>
<path d="M624 225 c-3 -8 -15 -17 -26 -21 -16 -5 -17 -8 -7 -14 16 -11 45 4
59 30 9 16 8 20 -5 20 -9 0 -18 -7 -21 -15z"/>
<path d="M1450 226 c-21 -27 -8 -60 27 -67 38 -8 57 8 50 43 -4 19 -5 18 -7
-7 -2 -29 -2 -29 -9 -5 -5 17 -14 25 -29 24 -24 -1 -30 11 -9 19 7 4 8 6 1 6
-6 1 -17 -6 -24 -13z m26 -46 c8 0 14 5 14 11 0 5 -4 7 -10 4 -5 -3 -10 -1
-10 4 0 6 7 11 16 11 9 0 14 -7 12 -17 -4 -22 -42 -24 -44 -3 0 9 1 10 3 3 3
-7 11 -13 19 -13z"/>
<path d="M1390 203 c-34 -13 -34 -13 -5 -9 30 4 30 4 26 -40 l-3 -45 38 16
c48 20 53 25 26 25 -12 0 -23 -6 -23 -12 -1 -7 -6 8 -13 33 l-11 46 -35 -14z"/>
<path d="M1329 185 c-1 -3 -2 -18 -3 -33 -1 -24 3 -28 27 -30 21 -2 27 2 27
18 0 11 -7 20 -15 20 -18 0 -20 -16 -2 -23 7 -4 6 -6 -4 -6 -16 -1 -33 35 -21
43 16 9 52 -15 52 -33 0 -23 -10 -31 -55 -41 -32 -7 -33 -7 -24 17 12 33 11
52 -2 33 -8 -12 -9 -9 -4 9 6 20 4 23 -10 18 -9 -4 -26 -7 -38 -7 -17 0 -19
-2 -8 -9 8 -5 19 -7 26 -5 7 3 10 -7 6 -33 l-5 -38 -6 30 -7 30 -5 -30 -5 -30
-2 28 c-1 20 -6 27 -22 27 -11 0 -17 5 -14 10 3 6 2 10 -2 10 -15 0 -33 -23
-33 -42 0 -23 45 -52 67 -43 10 4 36 8 58 10 68 5 95 20 95 54 0 16 -3 32 -7
34 -15 8 -63 17 -64 12z m-89 -72 c0 -12 -2 -12 -16 1 -20 21 -28 20 -19 -1 5
-14 3 -15 -6 -6 -6 6 -8 16 -5 21 9 15 46 2 46 -15z"/>
<path d="M780 160 c0 -9 5 -21 12 -28 17 -17 48 -15 48 3 0 13 -12 17 -36 14
-4 0 -11 5 -15 13 -7 10 -9 10 -9 -2z"/>
<path d="M1131 150 c-19 -5 -40 -6 -46 -4 -15 6 -37 -19 -33 -37 7 -35 55 -39
61 -6 l4 22 2 -23 c1 -15 -6 -25 -21 -31 -17 -6 -4 -9 45 -10 44 0 66 3 62 10
-4 5 -15 7 -26 4 -13 -4 -18 -2 -15 7 10 32 15 78 8 77 -4 -1 -22 -5 -41 -9z
m-58 -27 c-6 -16 -5 -17 13 -3 17 14 18 14 6 -2 -10 -13 -10 -17 0 -21 8 -3 8
-6 2 -6 -16 -1 -37 26 -29 39 10 16 15 12 8 -7z m80 -3 c-3 -11 -7 -20 -9 -20
-2 0 -8 9 -14 20 -9 17 -8 20 9 20 14 0 18 -5 14 -20z"/>
<path d="M991 104 c0 -11 3 -14 6 -6 3 7 2 16 -1 19 -3 4 -6 -2 -5 -13z"/>
</g>
</svg>
