<?xml version="1.0" standalone="no"?>
<!DOCTYPE svg PUBLIC "-//W3C//DTD SVG 20010904//EN"
 "http://www.w3.org/TR/2001/REC-SVG-20010904/DTD/svg10.dtd">
<svg version="1.0" xmlns="http://www.w3.org/2000/svg"
 width="1400.000000pt" height="466.000000pt" viewBox="0 0 1400.000000 466.000000"
 preserveAspectRatio="xMidYMid meet">

<g transform="translate(0.000000,466.000000) scale(0.100000,-0.100000)"
fill="#000000" stroke="none">
<path d="M9485 3114 c-309 -54 -505 -224 -576 -499 -41 -161 -35 -437 13 -595
80 -259 244 -405 529 -471 76 -17 126 -21 264 -22 185 0 305 16 416 55 l64 23
3 320 c1 176 1 324 -2 330 -2 6 -56 9 -145 7 l-141 -3 0 -229 0 -228 -50 -11
c-66 -14 -234 -14 -302 0 -83 17 -177 67 -233 123 -89 89 -132 206 -142 386
-13 247 68 424 235 513 153 83 470 88 693 12 41 -14 77 -25 82 -25 4 0 7 58 7
128 l0 128 -67 22 c-160 51 -467 68 -648 36z"/>
<path d="M12865 3117 c-136 -35 -225 -151 -224 -292 1 -81 12 -116 56 -180
173 -244 570 -91 539 208 -19 181 -197 308 -371 264z m177 -71 c48 -23 97 -73
119 -121 25 -53 24 -147 0 -201 -73 -161 -298 -192 -410 -57 -109 132 -55 329
106 389 47 18 137 12 185 -10z"/>
<path d="M12830 2833 l0 -163 25 0 c23 0 24 4 27 63 3 62 3 62 35 65 29 3 33
-1 65 -60 27 -52 38 -64 62 -66 15 -2 27 0 25 5 -2 4 -19 36 -36 70 l-33 62
30 30 c32 32 36 51 19 99 -13 38 -43 50 -141 55 l-78 4 0 -164z m160 102 c18
-22 15 -66 -6 -82 -10 -7 -37 -13 -61 -13 l-43 0 0 55 0 55 49 0 c31 0 53 -5
61 -15z"/>
<path d="M1270 2325 l0 -796 143 3 142 3 3 668 2 667 205 0 c284 0 335 -14
376 -104 39 -85 20 -191 -47 -265 -53 -59 -133 -102 -244 -132 -47 -12 -86
-23 -87 -24 -1 0 7 -55 17 -120 11 -66 20 -124 20 -128 0 -22 245 44 345 93
217 106 317 260 316 485 0 202 -61 319 -202 391 -99 50 -142 54 -581 54 l-408
0 0 -795z"/>
<path d="M4760 3005 l0 -115 145 0 145 0 0 115 0 115 -145 0 -145 0 0 -115z"/>
<path d="M5840 3005 l0 -116 148 3 147 3 3 113 3 112 -151 0 -150 0 0 -115z"/>
<path d="M10980 3005 l0 -115 145 0 145 0 0 115 0 115 -145 0 -145 0 0 -115z"/>
<path d="M12180 2885 c0 -129 -4 -235 -8 -235 -5 0 -35 10 -68 22 -79 29 -278
31 -369 4 -137 -41 -231 -113 -283 -218 -51 -102 -65 -175 -64 -328 1 -207 40
-332 135 -436 83 -91 179 -135 333 -154 128 -16 345 4 563 51 l51 11 0 759 0
759 -145 0 -145 0 0 -235z m-61 -458 l56 -22 3 -296 2 -297 -47 -12 c-27 -7
-88 -15 -138 -17 -76 -4 -99 -2 -147 16 -105 40 -161 134 -173 292 -17 203 52
329 195 360 58 13 188 0 249 -24z"/>
<path d="M5200 2338 c0 -604 2 -623 58 -703 17 -25 49 -51 86 -69 56 -29 62
-30 232 -34 l174 -5 0 117 c0 86 -3 116 -12 117 -175 8 -191 13 -225 66 -16
24 -18 61 -21 335 l-3 308 130 0 131 0 0 115 0 115 -145 0 c-108 0 -147 3
-149 13 -2 6 -12 48 -23 92 l-18 80 -107 3 -108 3 0 -553z"/>
<path d="M4035 2700 c-165 -25 -272 -88 -327 -193 -18 -34 -23 -63 -26 -152
-3 -95 -1 -118 18 -169 26 -69 82 -129 148 -158 41 -18 74 -22 248 -27 218 -7
244 -14 264 -67 25 -66 2 -131 -57 -160 -73 -36 -318 -20 -494 31 l-79 23 0
-118 0 -118 48 -15 c85 -27 139 -37 264 -48 245 -21 418 16 521 110 62 57 89
125 95 232 5 104 -13 178 -61 241 -73 96 -180 128 -425 128 -174 0 -203 11
-222 80 -17 64 9 108 80 137 98 40 315 28 498 -26 38 -12 72 -21 76 -21 3 0 6
52 6 115 0 131 6 123 -105 148 -151 35 -343 46 -470 27z"/>
<path d="M2860 2685 c-97 -22 -199 -76 -254 -135 -92 -98 -136 -235 -136 -428
0 -271 85 -442 263 -526 104 -49 164 -61 312 -60 105 0 145 4 210 22 181 52
280 150 337 332 19 65 23 96 22 225 0 168 -14 239 -65 335 -58 108 -149 183
-271 222 -85 27 -324 34 -418 13z m278 -217 c68 -17 141 -93 167 -173 27 -80
28 -264 2 -347 -38 -126 -126 -192 -257 -193 -96 0 -156 22 -208 79 -61 67
-77 125 -77 291 l0 141 35 69 c38 75 88 120 151 135 52 12 135 11 187 -2z"/>
<path d="M4760 2115 l0 -585 145 0 145 0 0 585 0 585 -145 0 -145 0 0 -585z"/>
<path d="M5840 2115 l0 -586 148 3 147 3 0 580 0 580 -147 3 -148 3 0 -586z"/>
<path d="M6170 2694 c0 -6 65 -179 248 -659 36 -93 71 -186 78 -205 7 -19 36
-93 63 -165 l49 -130 136 -3 135 -3 14 28 c13 25 81 189 232 563 23 58 77 191
120 295 42 105 86 211 96 238 l19 47 -153 0 -154 0 -47 -132 c-204 -567 -240
-664 -246 -671 -4 -4 -50 117 -103 270 -54 153 -117 334 -140 403 l-44 125
-151 3 c-84 1 -152 -1 -152 -4z"/>
<path d="M7780 2694 c-194 -33 -298 -96 -373 -225 -91 -155 -97 -472 -12 -645
51 -105 108 -163 207 -213 122 -60 199 -74 408 -72 96 1 209 7 250 14 l75 12
3 118 c2 110 1 118 -15 113 -95 -30 -412 -37 -508 -11 -110 29 -178 100 -187
193 l-3 34 386 -2 386 -1 7 32 c11 56 6 195 -9 276 -36 189 -137 304 -315 357
-53 16 -249 29 -300 20z m191 -234 c86 -24 140 -91 155 -192 l6 -48 -252 0
-253 0 6 45 c8 54 39 118 73 148 56 50 177 71 265 47z"/>
<path d="M10340 2115 l0 -586 143 3 142 3 3 396 2 397 41 37 c52 47 132 84
198 92 l51 6 0 120 0 119 -47 -7 c-83 -12 -171 -56 -245 -123 l-27 -24 -10 38
c-5 22 -14 55 -19 74 l-8 35 -112 3 -112 3 0 -586z"/>
<path d="M10982 2118 l3 -583 143 -3 142 -3 0 586 0 585 -145 0 -145 0 2 -582z"/>
</g>
</svg>
