<?xml version="1.0" standalone="no"?>
<!DOCTYPE svg PUBLIC "-//W3C//DTD SVG 20010904//EN"
 "http://www.w3.org/TR/2001/REC-SVG-20010904/DTD/svg10.dtd">
<svg version="1.0" xmlns="http://www.w3.org/2000/svg"
 width="198.000000pt" height="183.000000pt" viewBox="0 0 198.000000 183.000000"
 preserveAspectRatio="xMidYMid meet">

<g transform="translate(0.000000,183.000000) scale(0.100000,-0.100000)"
fill="#000000" stroke="none">
<path d="M233 1120 c-43 -19 -53 -33 -31 -46 7 -5 8 -2 3 7 -5 8 -4 10 0 6 19
-16 13 -37 -8 -33 -12 2 -21 10 -19 17 1 8 -11 -1 -27 -20 -27 -31 -51 -96
-51 -138 0 -29 22 -99 27 -85 3 6 12 12 20 12 15 0 15 -2 0 -17 -14 -17 -13
-21 14 -53 29 -34 29 -35 45 -15 14 19 16 19 28 3 7 -10 16 -15 19 -11 4 3 7
-6 7 -20 0 -22 5 -27 23 -26 16 1 18 2 5 6 -19 5 -25 33 -8 33 6 0 10 -4 10
-9 0 -5 9 -7 20 -4 15 4 20 0 20 -13 0 -16 -2 -17 -10 -4 -8 13 -10 12 -10 -2
0 -10 7 -18 15 -18 8 0 15 9 15 20 0 23 18 27 26 5 11 -27 33 -17 28 12 -4 23
-3 25 10 13 9 -7 13 -17 10 -22 -4 -5 7 -3 22 5 35 18 88 72 61 61 -9 -3 -17
-10 -17 -16 0 -5 -5 -6 -12 -2 -7 4 -8 3 -4 -4 6 -11 -6 -16 -26 -13 -5 0 -8
-4 -8 -10 0 -5 -4 -7 -10 -4 -12 7 -14 26 -2 24 18 -3 32 2 32 11 0 6 9 21 21
33 15 17 19 18 14 5 -8 -20 -2 -22 25 -8 38 20 52 132 25 196 -17 41 -55 92
-55 75 0 -7 -5 -9 -10 -6 -6 4 -7 11 -4 17 4 6 2 8 -4 5 -5 -4 -8 -17 -5 -30
4 -21 4 -21 -11 -3 -12 15 -13 23 -4 33 9 11 8 17 -3 24 -21 13 -26 11 -32
-12 -7 -27 -27 -15 -27 17 0 15 -6 24 -15 24 -8 0 -15 -8 -15 -19 0 -13 -7
-18 -22 -17 -16 1 -22 7 -20 19 4 23 -22 22 -75 -3z m42 -14 c12 -12 12 -15
-5 -19 -21 -5 -30 0 -30 20 0 17 18 17 35 -1z m142 -52 c42 -31 64 -67 70
-112 7 -56 -2 -85 -39 -128 -37 -42 -67 -56 -124 -56 -167 0 -221 230 -72 306
43 22 129 17 165 -10z m107 -229 c-5 -12 -10 -13 -20 -4 -19 15 -18 19 6 19
13 0 18 -5 14 -15z m-349 -15 c3 -6 -4 -10 -17 -10 -18 0 -20 2 -8 10 19 12
18 12 25 0z m25 -45 c0 -9 -6 -12 -15 -9 -8 4 -12 10 -9 15 8 14 24 10 24 -6z"/>
<path d="M310 1003 c0 -12 -5 -25 -10 -28 -8 -5 -7 -11 1 -21 9 -11 9 -18 1
-26 -9 -9 -9 -15 0 -25 8 -10 8 -17 0 -25 -8 -8 -9 -15 -1 -25 9 -9 8 -17 -1
-28 -8 -9 -9 -15 -2 -15 6 0 13 4 17 10 3 5 13 6 22 3 12 -5 15 -2 11 9 -4 9
-2 20 4 26 8 8 8 15 0 25 -9 10 -9 16 0 25 8 8 8 15 -1 26 -7 8 -8 17 -2 20 5
3 9 21 8 40 -1 29 -4 33 -24 32 -17 -1 -23 -7 -23 -23z m30 -33 c0 -5 -4 -10
-10 -10 -5 0 -10 5 -10 10 0 6 5 10 10 10 6 0 10 -4 10 -10z m0 -50 c0 -5 -4
-10 -10 -10 -5 0 -10 5 -10 10 0 6 5 10 10 10 6 0 10 -4 10 -10z m-5 -50 c3
-5 1 -10 -4 -10 -6 0 -11 5 -11 10 0 6 2 10 4 10 3 0 8 -4 11 -10z"/>
<path d="M709 1051 c0 -12 -1 -39 -1 -61 0 -78 2 -93 9 -86 11 11 12 155 2
162 -5 3 -9 -4 -10 -15z"/>
<path d="M971 1058 c-1 -12 -9 -18 -26 -18 -22 0 -25 -4 -24 -32 2 -31 2 -31
6 -5 6 37 43 39 43 2 0 -14 -4 -25 -10 -25 -5 0 -7 -6 -4 -14 3 -8 -9 -25 -28
-41 -25 -20 -27 -24 -8 -14 45 22 67 54 62 88 -3 22 0 31 9 31 10 0 10 3 3 8
-6 4 -14 14 -17 22 -4 12 -6 11 -6 -2z"/>
<path d="M1480 1055 c0 -8 -4 -15 -9 -15 -5 0 -11 -10 -14 -22 -6 -23 -6 -23
14 2 l21 24 20 -24 c21 -26 21 -22 -2 23 -15 29 -30 36 -30 12z"/>
<path d="M1766 1055 c-3 -8 -1 -15 4 -15 6 0 10 7 10 15 0 8 -2 15 -4 15 -2 0
-6 -7 -10 -15z"/>
<path d="M1166 1054 c12 -5 6 -63 -8 -81 -7 -9 -7 -13 0 -13 6 0 13 -8 15 -17
3 -10 5 5 6 32 1 54 7 69 31 78 8 3 -1 5 -20 5 -19 0 -30 -2 -24 -4z"/>
<path d="M1238 1006 c2 -30 -1 -65 -8 -78 -11 -22 -10 -22 4 -4 9 11 16 29 17
40 0 12 1 38 2 59 1 20 -2 37 -8 37 -6 0 -9 -22 -7 -54z"/>
<path d="M1278 984 c2 -42 5 -74 7 -72 10 10 10 148 0 148 -6 0 -9 -28 -7 -76z"/>
<path d="M1682 978 l2 -83 3 78 c4 71 14 96 26 65 3 -8 6 -6 6 5 1 11 -6 17
-19 17 -19 0 -20 -6 -18 -82z"/>
<path d="M1015 1015 c2 -37 15 -43 15 -7 0 18 -4 32 -8 32 -4 0 -7 -11 -7 -25z"/>
<path d="M650 990 c0 -22 3 -40 8 -40 4 0 6 18 4 40 -2 22 -6 40 -8 40 -2 0
-4 -18 -4 -40z"/>
<path d="M768 996 c3 -27 0 -35 -15 -39 -15 -4 -14 -5 5 -6 19 -1 22 4 22 39
0 22 -4 40 -8 40 -4 0 -6 -15 -4 -34z"/>
<path d="M1778 1003 c7 -3 16 -2 19 1 4 3 -2 6 -13 5 -11 0 -14 -3 -6 -6z"/>
<path d="M1203 965 c0 -22 2 -30 4 -17 2 12 2 30 0 40 -3 9 -5 -1 -4 -23z"/>
<path d="M1470 973 c0 -15 -10 -38 -22 -51 l-23 -25 22 12 c12 6 25 15 28 21
11 17 14 70 4 70 -5 0 -9 -12 -9 -27z"/>
<path d="M1712 955 c0 -16 2 -22 5 -12 2 9 2 23 0 30 -3 6 -5 -1 -5 -18z"/>
<path d="M1750 960 c0 -10 -10 -29 -22 -41 l-23 -23 25 16 c14 8 26 25 28 37
5 30 20 26 24 -6 2 -22 9 -29 28 -30 25 -3 25 -3 3 7 -27 11 -30 47 -5 53 9 3
0 5 -20 6 -31 1 -38 -2 -38 -19z"/>
<path d="M1518 940 c5 -35 19 -47 35 -31 8 8 6 11 -6 11 -11 0 -17 8 -17 25 0
14 -4 25 -8 25 -5 0 -7 -14 -4 -30z"/>
<path d="M1000 941 c0 -5 11 -16 25 -25 14 -9 25 -12 25 -7 0 5 -11 16 -25 25
-14 9 -25 12 -25 7z"/>
<path d="M677 837 c-3 -9 -2 -17 3 -17 6 0 10 -7 10 -15 0 -18 -17 -20 -22 -3
-3 8 -6 6 -10 -4 -5 -12 1 -17 27 -20 33 -4 33 -3 21 22 -7 14 -15 32 -18 39
-3 12 -6 12 -11 -2z"/>
<path d="M780 846 c0 -2 7 -7 16 -10 8 -3 12 -2 9 4 -6 10 -25 14 -25 6z"/>
<path d="M867 837 c-3 -9 1 -18 9 -21 16 -6 18 2 5 22 -7 11 -9 11 -14 -1z"/>
<path d="M934 837 c-6 -16 0 -54 9 -63 4 -4 7 11 7 34 0 42 -6 53 -16 29z"/>
<path d="M1111 809 c1 -27 3 -35 6 -20 l5 25 17 -23 c16 -21 19 -21 24 -7 4
10 3 14 -2 11 -5 -3 -12 3 -16 14 -3 11 -12 25 -20 31 -13 11 -15 6 -14 -31z"/>
<path d="M1185 838 c-3 -7 -1 -26 4 -43 9 -29 9 -29 10 13 1 41 -5 54 -14 30z"/>
<path d="M1678 839 c-23 -13 -23 -42 -1 -60 15 -13 15 -12 2 9 -13 21 -12 25
10 43 25 20 18 25 -11 8z"/>
<path d="M1787 837 c-3 -9 1 -18 9 -21 16 -6 18 2 5 22 -7 11 -9 11 -14 -1z"/>
<path d="M744 826 c-9 -22 -1 -49 16 -54 13 -5 13 -3 1 11 -7 9 -11 26 -8 37
6 23 -1 27 -9 6z"/>
<path d="M1043 805 c0 -22 2 -30 4 -17 2 12 2 30 0 40 -3 9 -5 -1 -4 -23z"/>
<path d="M1233 805 c0 -22 2 -30 4 -17 2 12 2 30 0 40 -3 9 -5 -1 -4 -23z"/>
<path d="M1295 831 c-3 -6 -1 -11 6 -11 6 0 9 -8 6 -19 -3 -13 1 -21 14 -24
18 -5 18 -3 2 27 -20 39 -20 39 -28 27z"/>
<path d="M1400 830 c0 -6 9 -15 20 -22 11 -7 20 -20 21 -28 0 -11 2 -11 6 -2
3 7 -7 24 -21 37 -14 13 -26 20 -26 15z"/>
<path d="M1483 805 c0 -22 2 -30 4 -17 2 12 2 30 0 40 -3 9 -5 -1 -4 -23z"/>
<path d="M1520 823 c0 -9 3 -13 7 -10 4 4 19 -5 35 -20 l28 -27 0 30 c0 18 -3
24 -8 16 -7 -9 -13 -8 -27 8 -22 24 -35 26 -35 3z"/>
<path d="M1623 805 c0 -22 2 -30 4 -17 2 12 2 30 0 40 -3 9 -5 -1 -4 -23z"/>
<path d="M992 826 c4 -5 2 -20 -3 -34 -8 -22 -8 -23 6 -12 18 15 20 36 3 46
-7 4 -10 4 -6 0z"/>
<path d="M1766 794 c-3 -9 -4 -19 -1 -22 3 -3 5 -1 5 5 0 11 29 11 48 0 8 -6
10 -3 6 8 -4 10 -13 14 -22 10 -8 -3 -19 -1 -22 5 -5 8 -9 6 -14 -6z"/>
<path d="M850 790 c0 -5 5 -10 11 -10 5 0 7 5 4 10 -3 6 -8 10 -11 10 -2 0 -4
-4 -4 -10z"/>
<path d="M886 791 c-3 -5 1 -11 9 -15 8 -3 15 -1 15 4 0 13 -18 22 -24 11z"/>
<path d="M1275 790 c-3 -5 -1 -10 4 -10 6 0 11 5 11 10 0 6 -2 10 -4 10 -3 0
-8 -4 -11 -10z"/>
<path d="M210 726 c0 -2 7 -6 15 -10 8 -3 15 -1 15 4 0 6 -7 10 -15 10 -8 0
-15 -2 -15 -4z"/>
</g>
</svg>
