<svg width="215" height="36" viewBox="0 0 215 36" fill="none" xmlns="http://www.w3.org/2000/svg">
<path fill-rule="evenodd" clip-rule="evenodd" d="M0 35.712H35.8454V0H0V35.712ZM28.5643 12.2041L27.6068 6.84014C27.4622 6.01214 26.6673 5.47214 25.8543 5.61614L20.4883 6.55214C19.1513 6.78614 18.7719 8.49614 19.874 9.27014L26.1795 13.6981C27.2996 14.4721 28.7992 13.5361 28.5643 12.2041ZM16.7124 14.526L17.3629 14.652C18.6998 14.886 19.5671 16.128 19.3503 17.442L17.4171 28.368C17.1822 29.682 15.9175 30.564 14.5986 30.33L13.9482 30.222C12.6293 29.988 11.744 28.728 11.9788 27.414L13.912 16.488C14.1469 15.174 15.3935 14.31 16.7124 14.526ZM11.3823 7.64995L10.7138 7.54195C9.3949 7.30795 8.14826 8.18995 7.91339 9.50395L5.98019 20.4299C5.74532 21.7439 6.63061 23.0039 7.94952 23.2379L8.59994 23.3459C9.91885 23.5799 11.1836 22.6979 11.4184 21.3839L13.3516 10.4579C13.5684 9.14395 12.7012 7.88395 11.3823 7.64995ZM26.3783 20.43H27.1732C29.3774 20.43 31.1661 22.212 31.1661 24.408V25.2C31.1661 27.396 29.3774 29.178 27.1732 29.178H26.3783C24.1741 29.178 22.3854 27.396 22.3854 25.2V24.408C22.3854 22.212 24.1741 20.43 26.3783 20.43Z" fill="black"/>
<path d="M54.5088 21.5101L53.1357 22.5361C53.75 23.0761 54.2198 23.5081 54.563 23.8321C52.3046 23.9221 50.6424 23.9941 49.5945 24.0301C50.3534 22.8601 51.0399 21.7081 51.6361 20.5921L49.6307 19.9441C49.1067 21.2941 48.384 22.6801 47.4626 24.1021C47.1555 24.1201 46.7399 24.1201 46.234 24.1381C45.7101 24.1561 45.3668 24.1561 45.2042 24.1561L45.3126 25.9201C49.5584 25.7581 53.1357 25.6141 56.0084 25.4701C56.442 26.0101 56.7672 26.4421 56.9479 26.8021L58.4475 25.6501C58.1042 25.0561 57.5622 24.3901 56.8214 23.6341C56.0807 22.8781 55.3219 22.1581 54.5088 21.5101Z" fill="black"/>
<path d="M46.7579 33.696H48.5466V33.102H54.6533V33.678H56.5323V27.27H46.7579V33.696ZM48.5466 28.908H54.6533V31.428H48.5466V28.908Z" fill="black"/>
<path d="M70.8414 23.49H67.3725V25.236H70.8414V28.782C69.0347 29.43 67.7158 29.862 66.8666 30.114L67.6435 31.896C69.3418 31.194 70.4078 30.744 70.8414 30.564V33.552H72.6662V20.286H70.8414V23.49Z" fill="black"/>
<path d="M79.0262 31.1401C78.9359 31.5181 78.7552 31.6981 78.4842 31.6981H76.9485C76.6775 31.6981 76.5149 31.6441 76.4426 31.5361C76.3704 31.4281 76.3342 31.1761 76.3342 30.7621V26.4961C78.0325 25.6141 79.4418 24.7861 80.5981 24.0121L79.3334 22.4641C78.43 23.2381 77.4363 23.9761 76.3162 24.6781V20.3041H74.5094V30.7621C74.5094 31.7881 74.654 32.4901 74.9611 32.8681C75.2683 33.2461 75.8283 33.4261 76.6775 33.4261H78.6468C79.4418 33.4261 79.9838 33.1381 80.2909 32.5801C80.5981 32.0221 80.7968 31.0141 80.8872 29.5561C80.2548 29.4121 79.6947 29.1421 79.225 28.7641C79.1888 29.9881 79.1166 30.7801 79.0262 31.1401Z" fill="black"/>
<path d="M92.8476 25.452C92.2875 24.966 91.3841 24.516 90.1194 24.048L89.198 25.344C90.3543 25.848 91.2396 26.37 91.8358 26.892L92.8476 25.452Z" fill="black"/>
<path d="M92.2513 27.7559C91.4564 29.4299 90.5711 30.9779 89.6135 32.4179L91.1492 33.4979C91.9984 32.0039 92.8114 30.4379 93.5702 28.8359L92.2513 27.7559Z" fill="black"/>
<path d="M93.5881 23.346H96.0813C95.9549 23.706 95.72 24.282 95.3406 25.056C95.1419 25.056 94.8708 25.056 94.4914 25.056C94.112 25.056 93.841 25.074 93.6603 25.074L93.841 26.694C96.5692 26.568 98.954 26.442 101.032 26.316C101.303 26.712 101.483 27.036 101.574 27.252L103.037 26.46C102.802 26.028 102.459 25.524 101.989 24.966C101.52 24.39 101.032 23.868 100.526 23.4L99.1708 24.12C99.2612 24.21 99.3876 24.336 99.5503 24.534C99.7309 24.714 99.8393 24.84 99.8935 24.912C98.954 24.948 98.0326 24.984 97.1292 25.002C97.328 24.66 97.6351 24.102 98.0507 23.346H102.802V21.798H98.8998V20.052H97.1292V21.798H93.5881V23.346Z" fill="black"/>
<path d="M94.7085 28.4401C94.7085 28.9621 94.6724 29.4121 94.6182 29.8081C94.5459 30.2041 94.3652 30.6721 94.0762 31.1761C93.7871 31.6981 93.3716 32.1301 92.8476 32.5081C93.0644 32.6341 93.2812 32.8141 93.5342 33.0301C93.7871 33.2641 93.9678 33.4621 94.0762 33.6421C94.5459 33.2821 94.9434 32.9041 95.2505 32.4721C95.5577 32.0401 95.7926 31.5901 95.9371 31.1221C96.0816 30.6541 96.172 30.2221 96.2262 29.8261C96.2804 29.4301 96.2984 28.9981 96.2984 28.5121V27.0901H94.7266V28.4401H94.7085Z" fill="black"/>
<path d="M98.6469 27.2159H97.1292V33.0659H98.6469V27.2159Z" fill="black"/>
<path d="M101.899 31.68C101.881 31.896 101.827 32.022 101.773 32.058C101.737 32.094 101.664 32.112 101.592 32.112H101.357C101.267 32.112 101.213 32.094 101.177 32.04C101.158 32.004 101.14 31.878 101.14 31.644V27.108H99.5505V31.608C99.5505 32.4 99.6589 32.922 99.8757 33.138C100.129 33.39 100.454 33.516 100.869 33.516H101.61C101.917 33.516 102.188 33.444 102.405 33.318C102.64 33.174 102.803 32.958 102.893 32.652C102.965 32.364 103.037 31.806 103.074 30.96C102.658 30.834 102.279 30.6 101.917 30.312C101.935 31.032 101.917 31.5 101.899 31.68Z" fill="black"/>
<path d="M93.6425 21.546C93.0463 21.06 92.161 20.574 90.9866 20.106L90.0291 21.402C91.2034 21.906 92.0526 22.428 92.6307 22.968L93.6425 21.546Z" fill="black"/>
<path d="M112.36 24.588C113.065 24.102 113.769 23.508 114.51 22.806C115.251 22.104 115.883 21.42 116.407 20.736L114.709 20.052C114.366 20.574 113.86 21.114 113.246 21.708C112.613 22.302 111.999 22.788 111.403 23.166C111.692 23.472 111.999 23.958 112.36 24.588Z" fill="black"/>
<path d="M116.913 26.5501H121.249V31.6441C121.249 31.8241 121.123 31.9141 120.87 31.9141C120.779 31.9321 120.508 31.9321 120.057 31.9141C119.605 31.9141 119.189 31.8961 118.81 31.8781C119.081 32.4721 119.262 33.0661 119.334 33.6421C120.779 33.6421 121.737 33.5521 122.189 33.3541C122.514 33.2281 122.731 33.0481 122.839 32.7781C122.947 32.5081 123.02 32.1481 123.02 31.6621V26.5141H125.025V24.8761H116.913V26.5501Z" fill="black"/>
<path d="M115.269 23.202C114.799 24.012 114.203 24.804 113.462 25.596C112.74 26.388 111.981 27.036 111.222 27.576C111.583 27.954 111.981 28.458 112.414 29.088C112.74 28.818 113.155 28.458 113.625 28.008V33.714H115.377V26.1C115.974 25.344 116.498 24.606 116.949 23.85L115.269 23.202Z" fill="black"/>
<path d="M124.646 20.88H117.527V22.536H124.646V20.88Z" fill="black"/>
<path d="M136.046 33.696H137.799V33.21H143.454V33.678H145.296V27H136.046V33.696ZM137.781 28.422H143.436V29.43H137.781V28.422ZM137.781 30.726H143.436V31.77H137.781V30.726Z" fill="black"/>
<path d="M144.718 22.896L144.086 22.77H146.417V21.24H141.394V20.052H139.551V21.24H134.781V22.77H137.239L136.642 22.878C136.949 23.472 137.166 24.03 137.275 24.552H133.968V26.1H147.103V24.552H143.923C143.996 24.426 144.249 23.868 144.718 22.896ZM142.424 24.552H138.702L139.136 24.444C139.045 23.904 138.828 23.346 138.485 22.77H142.695C142.568 23.256 142.37 23.814 142.063 24.462L142.424 24.552Z" fill="black"/>
<path d="M169.272 29.8441V28.3321H163.599V27.4141H164.845L164.882 27.6121C165.062 27.5941 165.532 27.5401 166.309 27.4501C167.086 27.3601 167.7 27.2881 168.152 27.2341C168.224 27.5761 168.278 27.8281 168.296 28.0081L169.507 27.5221C169.38 26.7301 169.073 25.7761 168.567 24.6601L167.537 25.0381C167.845 24.5521 168.332 23.7781 168.947 22.7521L167.61 22.1941C167.447 22.5541 167.23 23.0041 166.941 23.5261L166.526 23.1121C166.779 22.6801 167.23 21.8521 167.845 20.6281L166.508 20.1421C166.291 20.8261 166.002 21.5281 165.604 22.2481L165.333 22.0321L164.954 22.5901V21.4201H163.346C163.382 21.3301 163.436 21.1501 163.545 20.8801C163.653 20.6101 163.725 20.3941 163.779 20.2321L162.009 20.0701C161.991 20.3581 161.9 20.8261 161.756 21.4381H160.491V26.4241C160.329 25.7581 160.148 25.2181 159.985 24.8041L158.955 25.1281C159.353 24.5341 159.841 23.7421 160.419 22.7161L159.1 22.1941C158.974 22.5181 158.757 22.9501 158.45 23.4901C158.359 23.4001 158.215 23.2741 157.998 23.0941C158.359 22.5181 158.775 21.7081 159.263 20.6461L157.908 20.1601C157.673 20.8981 157.384 21.6181 157.04 22.3021L156.751 22.1221L156.083 23.2921C156.733 23.8141 157.275 24.3001 157.709 24.7501C157.329 25.3441 157.022 25.8301 156.751 26.1901L156.047 26.2261L156.209 27.6481L159.479 27.1981C159.534 27.4681 159.57 27.7201 159.588 27.9181L160.744 27.4861L160.726 27.4141H161.828V28.3321H156.191V29.8441H160.383C159.136 30.8701 157.618 31.6261 155.83 32.1481C156.263 32.5621 156.661 33.0301 157.004 33.5881C158.901 32.8861 160.509 31.8961 161.828 30.5821V33.6601H163.581V30.6181C164.249 31.2301 165.008 31.7881 165.875 32.2741C166.724 32.7781 167.592 33.1561 168.459 33.4441C168.802 32.8861 169.181 32.4001 169.615 31.9681C167.772 31.4821 166.237 30.7621 165.008 29.8081H169.272V29.8441ZM167.501 25.1281C167.537 25.2001 167.555 25.2901 167.592 25.3801C167.628 25.4701 167.664 25.5781 167.7 25.7041C167.736 25.8301 167.772 25.9201 167.79 25.9741L166.851 26.0461C167.05 25.8121 167.266 25.5061 167.501 25.1281ZM164.972 23.4721C165.46 23.9221 165.875 24.3721 166.237 24.7861C165.893 25.3261 165.586 25.7761 165.315 26.1361L164.972 26.1541V23.4721ZM158.323 26.0641C158.576 25.7041 158.775 25.4161 158.919 25.1821C158.955 25.2541 159.028 25.5241 159.172 25.9921L158.323 26.0641ZM163.454 26.1181H161.973V25.0201H163.454V26.1181ZM163.454 23.8141H161.973V22.7341H163.454V23.8141Z" fill="black"/>
<path d="M185.857 20.052H184.015V22.572H178.956V29.934H180.726V29.142H184.015V33.696H185.857V29.142H189.182V29.862H191.025V22.572H185.875V20.052H185.857ZM183.996 27.432H180.708V24.3H183.996V27.432ZM189.182 24.3V27.432H185.857V24.3H189.182Z" fill="black"/>
<path d="M213.266 27.3059C212.778 26.3339 212.236 25.4519 211.621 24.6599L210.032 25.4699C210.61 26.2799 211.134 27.1799 211.603 28.1879C212.073 29.1779 212.362 30.0599 212.507 30.7979L214.277 29.9339C214.079 29.1599 213.753 28.2959 213.266 27.3059Z" fill="black"/>
<path d="M209.164 24.1739L210.32 22.6439C209.724 22.2119 208.965 21.7439 208.044 21.2579C207.123 20.7719 206.255 20.3939 205.406 20.0879L204.286 21.4379C205.153 21.7619 206.057 22.1939 206.96 22.6979C207.863 23.2199 208.604 23.7059 209.164 24.1739Z" fill="black"/>
<path d="M200.112 30.348L201.738 31.284C202.497 30.168 203.021 28.278 203.31 25.614L201.594 25.254C201.377 27.522 200.889 29.214 200.112 30.348Z" fill="black"/>
<path d="M209.544 31.464C209.435 31.788 209.2 31.968 208.857 31.968H206.833C206.49 31.968 206.273 31.914 206.183 31.824C206.093 31.734 206.038 31.518 206.038 31.158V24.228H204.214V31.158C204.214 32.076 204.376 32.706 204.702 33.048C205.027 33.39 205.659 33.552 206.581 33.552H208.965C209.833 33.552 210.429 33.3 210.754 32.796C211.079 32.292 211.296 31.356 211.386 29.97C210.7 29.79 210.158 29.538 209.76 29.214C209.742 30.384 209.67 31.14 209.544 31.464Z" fill="black"/>
<path d="M47.1372 13.266H49.5582V3.204H51.4372V1.422H45.2582V3.204H47.1372V13.266Z" fill="black"/>
<path d="M56.5143 1.422L54.2017 13.266H56.4782L56.9298 10.656H58.8088L59.2424 13.266H61.4647L59.1702 1.422H56.5143ZM57.1466 9.18L57.8513 4.41L58.574 9.18H57.1466Z" fill="black"/>
<path d="M67.4628 1.422H65.0599V13.266H67.4628V1.422Z" fill="black"/>
<path d="M77.5989 7.38C78.1951 6.876 78.4842 6.03 78.4842 4.824C78.4842 2.556 77.4543 1.422 75.3947 1.422H71.6186V13.266H74.0216V8.136H75.1417C76.1896 8.136 77.0026 7.884 77.5989 7.38ZM74.0216 6.444V3.114H74.8707C75.2501 3.114 75.5392 3.186 75.7379 3.312C75.9367 3.438 76.0451 3.618 76.1174 3.852C76.1716 4.086 76.2077 4.392 76.2077 4.788C76.2077 5.4 76.1173 5.832 75.9367 6.084C75.756 6.336 75.4127 6.444 74.8888 6.444H74.0216Z" fill="black"/>
<path d="M84.4642 7.92H86.6142V6.228H84.4642V3.096H87.2285V1.422H82.0613V13.266H87.2646V11.628H84.4642V7.92Z" fill="black"/>
<path d="M93.2809 1.422H90.878V13.266H93.2809V1.422Z" fill="black"/>
<path d="M111.692 1.422H109.198L107.645 8.892L106.181 1.422H103.616L103.417 13.266H105.188L105.368 5.184L106.922 13.266H108.422L109.957 5.22L110.138 13.266H111.909L111.692 1.422Z" fill="black"/>
<path d="M117.274 12.978C117.78 13.266 118.467 13.428 119.352 13.428C120.237 13.428 120.924 13.284 121.43 12.978C121.936 12.672 122.279 12.24 122.496 11.682C122.694 11.124 122.803 10.404 122.803 9.522V1.422H120.418V9.864C120.418 10.422 120.346 10.872 120.219 11.196C120.075 11.52 119.804 11.682 119.37 11.682C118.936 11.682 118.647 11.52 118.521 11.196C118.376 10.872 118.322 10.422 118.322 9.864V1.422H115.937V9.522C115.937 10.404 116.046 11.124 116.244 11.682C116.425 12.258 116.786 12.69 117.274 12.978Z" fill="black"/>
<path d="M131.15 6.98401L129.939 5.92201C129.578 5.59801 129.307 5.31001 129.126 5.04001C128.946 4.77001 128.855 4.44601 128.855 4.05001C128.855 3.76201 128.928 3.52801 129.09 3.33001C129.235 3.13201 129.452 3.04201 129.741 3.04201C130.084 3.04201 130.319 3.18601 130.427 3.49201C130.554 3.79801 130.608 4.24801 130.626 4.86001L132.722 4.55401C132.667 3.60001 132.433 2.80801 132.017 2.19601C131.602 1.58401 130.861 1.26001 129.795 1.26001C128.783 1.26001 127.97 1.53001 127.41 2.03401C126.832 2.55601 126.543 3.29401 126.543 4.26601C126.543 4.93201 126.669 5.49001 126.922 5.94001C127.175 6.39001 127.554 6.82201 128.042 7.25401L129.271 8.31601C129.723 8.71201 130.048 9.07201 130.265 9.39601C130.481 9.72001 130.572 10.116 130.572 10.584C130.572 10.872 130.517 11.106 130.391 11.286C130.265 11.466 130.066 11.556 129.777 11.556C129.397 11.556 129.108 11.376 128.909 11.016C128.711 10.656 128.62 10.098 128.602 9.36001L126.525 9.70201C126.579 10.962 126.868 11.898 127.428 12.492C127.97 13.086 128.801 13.392 129.903 13.392C130.499 13.392 131.041 13.266 131.511 13.014C131.981 12.762 132.342 12.42 132.595 11.97C132.848 11.52 132.975 11.016 132.975 10.458C132.975 9.72001 132.812 9.09001 132.505 8.55001C132.162 8.04601 131.728 7.50601 131.15 6.98401Z" fill="black"/>
<path d="M139.027 1.422H136.624V13.266H139.027V1.422Z" fill="black"/>
<path d="M146.489 1.27795C145.225 1.27795 144.321 1.61995 143.797 2.28595C143.273 2.95195 143.02 3.94195 143.02 5.25595V9.48595C143.02 10.764 143.291 11.736 143.815 12.42C144.339 13.104 145.243 13.428 146.507 13.428C147.736 13.428 148.585 13.122 149.091 12.492C149.597 11.88 149.832 10.998 149.832 9.86395V8.89195H147.483V10.044C147.483 10.584 147.429 10.998 147.302 11.286C147.176 11.574 146.905 11.7 146.489 11.7C146.092 11.7 145.821 11.556 145.676 11.286C145.532 11.016 145.459 10.602 145.459 10.044V4.66195C145.459 4.12195 145.514 3.70795 145.658 3.41995C145.785 3.13195 146.074 2.98795 146.507 2.98795C146.796 2.98795 147.013 3.05995 147.158 3.20395C147.302 3.34795 147.393 3.52795 147.429 3.74395C147.465 3.95995 147.483 4.24795 147.483 4.58995V5.68795H149.832V4.69795C149.832 3.59995 149.579 2.75395 149.073 2.15995C148.549 1.56595 147.7 1.27795 146.489 1.27795Z" fill="black"/>
<path d="M162.966 13.428C164.195 13.428 165.044 13.122 165.55 12.492C166.056 11.88 166.291 10.998 166.291 9.86395V8.89195H163.942V10.044C163.942 10.584 163.888 10.998 163.761 11.286C163.635 11.574 163.382 11.7 162.984 11.7C162.587 11.7 162.316 11.556 162.153 11.286C162.009 11.016 161.937 10.602 161.937 10.044V4.66195C161.937 4.12195 161.991 3.70795 162.135 3.41995C162.262 3.13195 162.551 2.98795 162.984 2.98795C163.274 2.98795 163.49 3.05995 163.635 3.20395C163.779 3.34795 163.87 3.52795 163.906 3.74395C163.942 3.95995 163.96 4.24795 163.96 4.58995V5.68795H166.309V4.69795C166.309 3.59995 166.056 2.75395 165.55 2.15995C165.044 1.56595 164.195 1.27795 162.984 1.27795C161.72 1.27795 160.816 1.61995 160.292 2.28595C159.769 2.95195 159.516 3.94195 159.516 5.25595V9.48595C159.516 10.764 159.787 11.736 160.311 12.42C160.798 13.086 161.702 13.428 162.966 13.428Z" fill="black"/>
<path d="M172.524 7.92H174.674V6.228H172.524V3.096H175.306V1.422H170.121V13.266H175.324V11.628H172.524V7.92Z" fill="black"/>
<path d="M180.979 6.714L183.617 13.266H185.261V1.422H183.238V7.578L180.6 1.422H178.92V13.266H180.979V6.714Z" fill="black"/>
<path d="M188.622 3.204H190.501V13.266H192.922V3.204H194.801V1.422H188.622V3.204Z" fill="black"/>
<path d="M200.564 7.92H202.696V6.228H200.564V3.096H203.329V1.422H198.161V13.266H203.365V11.628H200.564V7.92Z" fill="black"/>
<path d="M209.345 7.90205H210.23L211.585 13.2661H214.06L212.416 7.48805C212.958 7.23605 213.338 6.89405 213.554 6.40805C213.771 5.94005 213.88 5.31005 213.88 4.53605C213.88 3.38405 213.554 2.57405 212.904 2.10605C212.254 1.63805 211.296 1.40405 210.013 1.40405H206.924V13.2481H209.327V7.90205H209.345ZM209.345 3.04205H210.176C210.718 3.04205 211.079 3.18605 211.296 3.45605C211.495 3.72605 211.603 4.15805 211.603 4.73405C211.603 5.32805 211.495 5.76005 211.26 6.04805C211.025 6.33605 210.628 6.46205 210.067 6.46205H209.345V3.04205Z" fill="black"/>
</svg>
